<?xml version="1.0" standalone="no"?>
<!DOCTYPE svg PUBLIC "-//W3C//DTD SVG 1.1//EN" "http://www.w3.org/Graphics/SVG/1.1/DTD/svg11.dtd" >
<svg xmlns="http://www.w3.org/2000/svg" xmlns:xlink="http://www.w3.org/1999/xlink" version="1.1">
<metadata>
Created by FontForge 20170731 at Thu Nov  2 23:02:58 2017
 By Aleksey,,,
</metadata>
<defs>
<font id="DrukTextWide-Super" horiz-adv-x="700" >
  <font-face 
    font-family="Druk Text Wide Super"
    font-weight="400"
    font-stretch="normal"
    units-per-em="1000"
    panose-1="0 0 0 0 0 0 0 0 0 0"
    ascent="805"
    descent="-195"
    x-height="560"
    cap-height="744"
    bbox="-81 -324 1554 1251"
    underline-thickness="84"
    underline-position="-188"
    unicode-range="U+000D-2013"
  />
<missing-glyph horiz-adv-x="310" 
 />
    <glyph glyph-name=".notdef" horiz-adv-x="310" 
 />
    <glyph glyph-name="uni0000" horiz-adv-x="0" 
 />
    <glyph glyph-name="uni0000" horiz-adv-x="0" 
 />
    <glyph glyph-name="uni000D" unicode="&#xd;" horiz-adv-x="333" 
 />
    <glyph glyph-name="space" unicode=" " horiz-adv-x="310" 
 />
    <glyph glyph-name="exclam" unicode="!" horiz-adv-x="462" 
d="M39 744h384l-121 -460h-142zM384 236v-236h-306v236h306z" />
    <glyph glyph-name="comma" unicode="," horiz-adv-x="429" 
d="M124 -159q23 35 45 78q23 44 34 81h-142v238h307v-193q0 -49 -23 -113q-13 -36 -44 -91h-177z" />
    <glyph glyph-name="hyphen" unicode="-" horiz-adv-x="489" 
d="M60 412h369v-221h-369v221z" />
    <glyph glyph-name="period" unicode="." horiz-adv-x="429" 
d="M368 239v-239h-307v239h307z" />
    <glyph glyph-name="zero" unicode="0" horiz-adv-x="1119" 
d="M583 757q193 0 310 -62q100 -53 143 -144q33 -70 33 -162v-30q0 -91 -33 -161q-43 -94 -142 -147q-118 -64 -311 -64h-46q-192 0 -310 64q-99 53 -142 147q-35 74 -35 161v30q0 88 35 162q43 92 142 144q117 62 310 62h46zM749 382q0 61 -33 100q-47 56 -157 56t-157 -56
q-33 -39 -33 -100v-10q0 -63 35 -103q48 -57 156 -57t156 57q33 39 33 103v10z" />
    <glyph glyph-name="one" unicode="1" horiz-adv-x="623" 
d="M50 422v190q119 0 177 31q28 14 46.5 38.5t33.5 62.5h233v-744h-304v422h-186z" />
    <glyph glyph-name="two" unicode="2" horiz-adv-x="1015" 
d="M52 0v142q0 49 14 90t49 76q80 80 287 123l52 10l49 10q89 18 113 31q13 7 17 14t4 17v2q0 24 -21 36q-29 16 -105 16q-84 0 -115 -29q-11 -11 -15 -23.5t-5 -28.5h-310v7q0 64 24 111q33 67 115 105q100 46 275 46h61q233 0 331 -68q44 -31 63.5 -74.5t19.5 -99.5v-8
q0 -53 -23 -91t-70 -64t-118.5 -43t-172.5 -27q-41 -4 -58 -7l-53 -7q-92 -12 -134 -28q-19 -8 -22 -14q-6 -7 -6 -13h669v-211h-915z" />
    <glyph glyph-name="three" unicode="3" horiz-adv-x="1029" 
d="M473 -11q-184 0 -291 50q-89 41 -123 108q-25 46 -25 105v17h305q2 -28 28 -45q40 -28 138 -28q100 0 138 20q26 12 26 37v3q0 10 -2 16.5t-10 11.5q-19 12 -65 12h-209v179h208q43 0 56 11q12 11 12 25v1q0 10 -4.5 18.5t-18.5 15.5q-20 9 -48 13q-37 5 -90 5
q-59 0 -88 -7q-31 -8 -45 -18q-13 -9 -17 -18t-5 -19h-300v13q0 53 24 96q33 62 117 100q103 45 280 45h61q258 0 363 -63q41 -25 56 -56.5t15 -68.5v-6q0 -57 -40 -90q-32 -28 -89 -42q69 -12 108 -50q48 -48 48 -123v-6q0 -111 -78 -173q-110 -89 -378 -89h-57z" />
    <glyph glyph-name="four" unicode="4" horiz-adv-x="1048" 
d="M40 129v174l427 446h368v-417h178v-203h-178v-129h-299v129h-496zM536 332v235l-226 -235h226z" />
    <glyph glyph-name="five" unicode="5" horiz-adv-x="982" 
d="M482 -11q-181 0 -284 45q-83 36 -116 97q-22 41 -22 93v9h317l6 -9q4 -7 17 -13q30 -16 106 -16q71 0 104 20q27 16 27 46v4q0 30 -27 45q-33 18 -104 18q-72 0 -106 -16q-12 -7 -17 -13l-6 -10h-304v455h817v-197h-516v-114l20 14q40 24 113 37q41 7 105 7h13
q182 0 258 -78q58 -59 58 -156v-11q0 -61 -25 -109q-34 -65 -118 -102q-100 -46 -273 -46h-43z" />
    <glyph glyph-name="six" unicode="6" horiz-adv-x="1060" 
d="M518 -11q-191 0 -308 71q-92 56 -132 154q-28 67 -28 149v24q0 78 28 145q41 98 129 151q116 70 298 70h46q171 0 276 -41q87 -34 127 -94q30 -47 30 -105v-1h-300q-8 19 -28 31q-36 20 -117 20q-98 0 -142 -49q-31 -36 -31 -95v-7q16 11 32 19.5t43 16.5q81 23 196 23h9
q207 0 300 -63q74 -50 74 -141v-16q0 -68 -30 -119q-40 -64 -130 -100q-109 -43 -288 -43h-54zM634 187q59 10 67 36q4 11 4 25q0 29 -30 45q-38 20 -128 20q-99 0 -137 -20q-16 -8 -21.5 -19.5t-5.5 -26.5t5.5 -26.5t21.5 -19.5q38 -20 137 -20q56 0 87 6z" />
    <glyph glyph-name="seven" unicode="7" horiz-adv-x="962" 
d="M328 0v80q0 49 6.5 84.5t23.5 68.5q18 34 50.5 71t87.5 87l81 75l23 21q40 37 40 49h-278v-116h-300v324h850v-190q-35 -45 -144 -210q-39 -58 -61 -101.5t-33 -82.5q-10 -35 -13.5 -71t-3.5 -89h-329z" />
    <glyph glyph-name="eight" unicode="8" horiz-adv-x="1046" 
d="M500 -12q-191 0 -304 40q-90 32 -127 90q-26 41 -26 96v7q0 66 53 113q52 44 128 56q-69 7 -116 53q-22 20 -34 46t-12 53v6q0 54 23 88q33 52 119 80q107 35 296 35h46q188 0 296 -35q84 -28 119 -80q22 -35 22 -88v-6q0 -65 -41 -103.5t-115 -48.5q82 -13 129 -57
t47 -112v-7q0 -55 -26 -96q-37 -58 -127 -90q-113 -40 -304 -40h-46zM640 487q23 12 23 37q0 26 -22 38q-32 16 -119 16t-117 -16q-24 -12 -24 -38q0 -25 24 -37q34 -17 117 -17q84 0 118 17zM657 201q26 14 26 42q0 27 -26 40q-38 19 -135 19q-96 0 -134 -19
q-26 -13 -26 -40t27 -42q39 -23 133 -23q96 0 135 23z" />
    <glyph glyph-name="nine" unicode="9" horiz-adv-x="1060" 
d="M516 -11q-251 0 -361 84q-79 60 -79 155v1h301q2 -7 7 -13q13 -20 63 -31q27 -6 74 -6q99 0 142 50q31 35 31 94v7q-17 -11 -32 -19t-42 -16q-78 -24 -197 -24h-9q-207 0 -299 67q-75 55 -75 155v16q0 104 80 164q107 80 364 80h53q193 0 309 -66q93 -53 135 -148
q29 -68 29 -152v-24q0 -80 -27 -148q-39 -98 -127 -155q-111 -71 -294 -71h-46zM650 449q16 8 21.5 19.5t5.5 26.5q0 31 -27 46q-38 20 -137 20q-55 0 -86 -6q-60 -11 -68 -37q-4 -11 -4 -24q0 -29 30 -45q38 -20 128 -20q99 0 137 20z" />
    <glyph glyph-name="colon" unicode=":" horiz-adv-x="439" 
d="M373 239v-239h-307v239h307zM373 560v-239h-307v239h307z" />
    <glyph glyph-name="semicolon" unicode=";" horiz-adv-x="439" 
d="M129 -159q23 35 45 78q23 44 34 81h-142v238h307v-193q0 -49 -23 -113q-13 -36 -44 -91h-177zM373 560v-239h-307v239h307z" />
    <glyph glyph-name="question" unicode="?" horiz-adv-x="931" 
d="M292 284v33q0 63 26 96q30 40 122 62l65 14q41 7 57 17q15 8 15 25q0 19 -21 28t-83 9q-76 0 -104 -26q-18 -17 -18 -44h-314v15q0 57 22 101q31 63 112 97q97 42 275 42h33q243 -1 343 -71q41 -28 56.5 -66t15.5 -84v-11q0 -76 -54 -123.5t-171 -70.5l-52 -10
q-26 -4 -33 -13q-6 -9 -6 -20h-286zM588 236v-236h-306v236h306z" />
    <glyph glyph-name="A" unicode="A" horiz-adv-x="1079" 
d="M769 0l-51 111h-375l-51 -111h-305l353 744h395l357 -744h-323zM633 298l-102 226l-103 -226h205z" />
    <glyph glyph-name="B" unicode="B" horiz-adv-x="1108" 
d="M80 744h663q152 0 223 -49q62 -44 62 -124v-5q0 -71 -53 -113q-21 -17 -46.5 -27t-49.5 -13q77 -10 125 -46q67 -49 67 -137v-9q0 -105 -72 -160q-81 -61 -256 -61h-663v744zM385 559v-93h257q39 0 55.5 11.5t16.5 33.5v2q0 24 -16 35t-56 11h-257zM385 296v-103h280
q44 0 66 18q13 12 13 34v3q0 22 -13 33q-20 15 -66 15h-280z" />
    <glyph glyph-name="C" unicode="C" horiz-adv-x="1110" 
d="M532 -13q-193 0 -308 65q-98 53 -142 148q-35 74 -35 159v30q0 86 35 159q45 93 141 145q118 64 309 64h45q199 0 319 -55q96 -44 138 -124q30 -57 30 -134v-11h-317l-6 23q-13 42 -81 67q-39 14 -105 14q-109 0 -157 -57q-32 -38 -32 -99v-11q0 -62 33 -101
q47 -58 157 -58q113 0 161 46q19 16 24 34l6 21h317v-12q0 -69 -30 -128q-41 -80 -138 -127q-119 -58 -319 -58h-45z" />
    <glyph glyph-name="D" unicode="D" horiz-adv-x="1102" 
d="M80 744h469q285 0 410 -110q97 -85 97 -244v-30q0 -100 -38 -172q-48 -88 -152 -134q-124 -54 -317 -54h-469v744zM385 206h119q138 0 194 56q38 38 38 109v6q0 68 -38 106q-56 56 -194 56h-119v-333z" />
    <glyph glyph-name="E" unicode="E" horiz-adv-x="927" 
d="M80 744h778v-190h-472v-80h457v-195h-457v-87h479v-192h-785v744z" />
    <glyph glyph-name="F" unicode="F" horiz-adv-x="905" 
d="M80 744h767v-195h-461v-96h447v-198h-447v-255h-306v744z" />
    <glyph glyph-name="G" unicode="G" horiz-adv-x="1151" 
d="M494 -11q-238 0 -354 125q-48 52 -70.5 118t-22.5 136v16q0 94 40 171q48 91 152 143q121 59 310 59h35q194 0 316 -50q95 -40 140 -113q33 -54 33 -116v-6h-321q-11 26 -39 41q-49 27 -146 27q-114 0 -164 -50q-40 -40 -40 -111v-9q0 -69 40 -112q51 -54 160 -54
q100 0 154 29q35 17 42 46h-220v143h543v-422h-205q-6 23 -17 47q-13 26 -25 44q-36 -36 -98 -62q-95 -40 -225 -40h-18z" />
    <glyph glyph-name="H" unicode="H" horiz-adv-x="1125" 
d="M80 0v744h305v-254h356v254h304v-744h-304v272h-356v-272h-305z" />
    <glyph glyph-name="I" unicode="I" horiz-adv-x="465" 
d="M385 744v-744h-305v744h305z" />
    <glyph glyph-name="J" unicode="J" horiz-adv-x="966" 
d="M177 45q-84 50 -119 137q-28 69 -28 157v5h304q2 -42 23 -75q29 -50 100 -50h2q65 0 97 42q27 37 27 101v382h306v-400q0 -145 -75 -235q-101 -122 -331 -122h-43q-166 0 -263 58z" />
    <glyph glyph-name="K" unicode="K" horiz-adv-x="1022" 
d="M384 0h-304v744h304v-277l282 277h348l-345 -334l374 -410h-380l-279 320v-320z" />
    <glyph glyph-name="L" unicode="L" horiz-adv-x="874" 
d="M80 744h305v-512h440v-232h-745v744z" />
    <glyph glyph-name="M" unicode="M" horiz-adv-x="1362" 
d="M80 0v744h426l181 -381l183 381h412v-744h-300v452l-217 -452h-175l-216 452v-452h-294z" />
    <glyph glyph-name="N" unicode="N" horiz-adv-x="1150" 
d="M779 0l-401 400v-400h-298v744h310l382 -381v381h298v-744h-291z" />
    <glyph glyph-name="O" unicode="O" horiz-adv-x="1133" 
d="M589 757q199 0 318 -62q102 -53 145 -144q34 -72 34 -162v-30q0 -92 -34 -161q-45 -94 -145 -147q-120 -64 -318 -64h-46q-195 0 -316 64q-102 54 -145 147q-35 74 -35 161v30q0 91 35 162q45 92 145 144q119 62 316 62h46zM766 381q0 61 -34 100q-49 56 -166 56
q-118 0 -167 -56q-33 -38 -33 -100v-10q0 -63 35 -103q50 -57 166 -57q115 0 165 57q34 39 34 103v10z" />
    <glyph glyph-name="P" unicode="P" horiz-adv-x="1059" 
d="M385 213v-213h-305v744h564q211 0 300 -70q39 -32 56 -77.5t17 -105.5v-14q0 -126 -75 -189q-88 -75 -298 -75h-259zM385 417h229q50 0 70 20q16 15 16 42v2q0 24 -16 40q-21 19 -70 19h-229v-123z" />
    <glyph glyph-name="Q" unicode="Q" horiz-adv-x="1131" 
d="M450 -7q-156 12 -257 78q-81 53 -118 140q-29 67 -29 148v30q0 91 35 162q45 92 145 144q119 62 316 62h46q199 0 318 -62q102 -53 145 -144q34 -72 34 -162v-30q0 -126 -66 -214q-92 -120 -298 -148l140 -152h-411v148zM765 381q0 62 -34 101q-50 57 -166 57
q-117 0 -167 -57q-33 -38 -33 -101v-10q0 -64 35 -105q50 -59 166 -59q115 0 165 59q34 40 34 105v10z" />
    <glyph glyph-name="R" unicode="R" horiz-adv-x="1110" 
d="M998 315q54 -44 54 -125v-137q0 -20 2.5 -30.5t8.5 -17.5v-5h-314q-3 6 -4 13q-2 14 -2 30v63q0 36 -7 58.5t-23 35.5q-15 12 -41.5 16.5t-68.5 4.5h-218v-221h-305v744h656q182 0 255 -63q31 -26 42.5 -62t11.5 -81v-5q0 -76 -56 -124q-43 -36 -116 -51q81 -9 125 -43z
M385 430h269q41 0 61 18q14 13 14 38v1q0 23 -14 36q-18 16 -61 16h-269v-109z" />
    <glyph glyph-name="S" unicode="S" horiz-adv-x="1023" 
d="M505 -12q-196 0 -307 44q-95 38 -129 101q-26 48 -26 114v3h328q2 -31 23 -48q34 -29 117 -29h6q84 0 117 18q24 13 24 38q0 13 -4.5 22.5t-17.5 15.5q-33 16 -112 17l-107 2q-204 4 -290 73q-72 57 -72 160v8q0 54 20.5 95t67.5 70q102 63 338 63h47q254 0 359 -77
q78 -57 78 -165v-2h-321q-7 29 -27 43q-34 22 -110 22h-7q-79 0 -109 -14q-13 -6 -18 -15t-5 -21q0 -24 24 -35q27 -14 103 -15l110 -2q112 -2 184.5 -18t114.5 -46q39 -28 55.5 -68t16.5 -95v-12q0 -54 -17 -96.5t-62 -74.5q-106 -76 -369 -76h-23z" />
    <glyph glyph-name="T" unicode="T" horiz-adv-x="1004" 
d="M350 0v519h-304v225h912v-225h-304v-519h-304z" />
    <glyph glyph-name="U" unicode="U" horiz-adv-x="1139" 
d="M230 64q-95 58 -130 166q-23 70 -23 172v342h304v-342q0 -76 36 -117q45 -53 153 -53h4q104 0 150 53q34 40 34 117v342h304v-342q0 -99 -25 -172q-37 -108 -130 -166q-117 -75 -319 -75h-31q-209 0 -327 75z" />
    <glyph glyph-name="V" unicode="V" horiz-adv-x="1083" 
d="M737 0h-370l-376 744h354l216 -462l215 462h316z" />
    <glyph glyph-name="W" unicode="W" horiz-adv-x="1472" 
d="M604 0h-357l-254 744h328l135 -466l138 466h314l137 -466l136 466h298l-249 -744h-356l-135 433z" />
    <glyph glyph-name="X" unicode="X" horiz-adv-x="1050" 
d="M698 0l-176 236l-175 -236h-360l289 390l-273 354h375l157 -212l158 212h346l-269 -355l293 -389h-365z" />
    <glyph glyph-name="Y" unicode="Y" horiz-adv-x="1044" 
d="M376 0v262l-399 482h369l195 -247l200 247h326l-387 -482v-262h-304z" />
    <glyph glyph-name="Z" unicode="Z" horiz-adv-x="989" 
d="M925 0h-861v184l419 335h-414v225h852v-182l-436 -335h440v-227z" />
    <glyph glyph-name="a" unicode="a" horiz-adv-x="867" 
d="M449 21q-68 -33 -156 -33h-18q-116 0 -176.5 48t-60.5 134v5q0 40 14 69.5t44 50.5q61 42 209 49l161 8q21 1 29.5 7.5t8.5 21.5v1q0 18 -15 30q-17 11 -65 11h-7q-50 0 -70 -20q-13 -12 -13 -28h-283v1q0 38 12 71.5t45 60.5q82 67 293 67h35q216 0 299 -64
q33 -26 44.5 -59t11.5 -75v-166q0 -19 16 -19h37v-192h-236q-37 0 -65 23q-22 18 -32 43q-29 -29 -62 -45zM477 166q27 24 27 63v19l-89 -14q-53 -7 -74 -20q-9 -7 -13 -14.5t-4 -19.5v-1q0 -20 17.5 -31t49.5 -11q54 0 86 29z" />
    <glyph glyph-name="b" unicode="b" horiz-adv-x="931" 
d="M570 -11q-80 0 -144 30q-24 11 -41 23.5t-25 21.5q-5 -14 -8.5 -35.5t-4.5 -28.5h-279v757h292v-260q30 26 75 45q67 29 156 29h10q153 0 227 -86q63 -73 63 -193v-13q0 -124 -63 -198q-80 -92 -248 -92h-10zM585 285q0 17 -5.5 35.5t-16.5 33.5q-31 38 -88 38h-5
q-60 0 -88 -38q-23 -30 -23 -68v-7q0 -42 23 -72q28 -38 88 -38h5q59 0 88 38q22 30 22 73v5z" />
    <glyph glyph-name="c" unicode="c" horiz-adv-x="894" 
d="M835 136q-31 -67 -105 -104q-96 -47 -256 -47h-49q-226 0 -320 103q-67 73 -67 193v14q0 114 69 184q96 96 317 96h36q173 0 270 -46q78 -37 108 -100q18 -40 18 -96v-1h-304q-3 23 -20 39q-27 25 -78 25h-8q-54 0 -80 -33q-22 -27 -22 -77v-1q0 -51 22 -81
q26 -38 79 -38h7q53 0 80 29q18 19 20 45h304v-1q0 -57 -21 -103z" />
    <glyph glyph-name="d" unicode="d" horiz-adv-x="931" 
d="M863 757v-757h-292v63q-28 -28 -64 -45q-62 -29 -147 -29h-11q-161 0 -243 90q-34 37 -50 85t-16 99v28q0 51 15.5 99.5t48.5 87.5q79 93 244 93h11q78 0 145 -21q38 -13 67 -34v241h292zM455 392q-56 0 -85 -36q-24 -30 -24 -73v-3q0 -19 6.5 -39t18.5 -35
q13 -17 34 -27t50 -10h8q56 0 86 37q23 30 23 73v5q0 43 -23 71q-30 37 -86 37h-8z" />
    <glyph glyph-name="e" unicode="e" horiz-adv-x="915" 
d="M875 187q-6 -81 -72 -130q-98 -72 -318 -72h-49q-226 0 -324 100q-39 39 -56 88t-17 100v14q0 119 74 192q98 96 316 96h46q233 0 329 -98q40 -42 56.5 -97.5t16.5 -123.5v-23h-534q9 -43 38.5 -63t87.5 -20q49 0 76 16q12 7 16 12l6 9h308zM379 407.5
q-26 -18.5 -34 -58.5h223q-2 37 -25 55q-29 22 -86 22q-52 0 -78 -18.5z" />
    <glyph glyph-name="f" unicode="f" horiz-adv-x="576" 
d="M540 612h-72q-20 0 -28 -8.5t-8 -27.5v-16h108v-182h-108v-378h-287v378h-109v182h109v20q0 93 40 133q44 44 153 44h202v-145z" />
    <glyph glyph-name="g" unicode="g" horiz-adv-x="935" 
d="M458 -204q-162 0 -254 34q-74 26 -107 75q-22 32 -22 81v2h326q2 -4 5 -7q10 -10 37 -14q15 -3 38 -3h6q42 0 65 24.5t23 66.5v34q-17 -21 -63 -42q-58 -28 -144 -28h-13q-165 0 -246 81q-35 35 -52 83t-17 102v18q0 54 16.5 103t51.5 85q79 82 238 82h11q83 0 152 -25
q22 -8 35.5 -16.5t30.5 -20.5v49h292v-496q0 -128 -82 -193q-94 -75 -301 -75h-26zM458 398q-59 0 -87 -33q-25 -29 -25 -70v-1q0 -19 6.5 -38t18.5 -33q29 -34 87 -34h6q59 0 88 34q24 28 24 68v5q0 16 -6 34t-18 33q-30 35 -88 35h-6z" />
    <glyph glyph-name="h" unicode="h" horiz-adv-x="919" 
d="M68 757h292v-281q39 41 82 64q70 36 161 36h10q120 0 184 -66q56 -57 56 -149v-361h-293v274q0 94 -99 94q-50 0 -75.5 -28t-25.5 -77v-263h-292v757z" />
    <glyph glyph-name="i" unicode="i" horiz-adv-x="428" 
d="M360 763v-157h-292v157h292zM360 560v-560h-292v560h292z" />
    <glyph glyph-name="j" unicode="j" horiz-adv-x="428" 
d="M360 763v-157h-292v157h292zM34 -13q20 0 27 8.5t7 27.5v537h292v-587q0 -75 -39.5 -118t-114.5 -43h-220v175h48z" />
    <glyph glyph-name="k" unicode="k" horiz-adv-x="832" 
d="M360 0h-292v757h292v-397l143 200h314l-195 -250l220 -310h-324l-158 234v-234z" />
    <glyph glyph-name="l" unicode="l" horiz-adv-x="428" 
d="M360 757v-757h-292v757h292z" />
    <glyph glyph-name="m" unicode="m" horiz-adv-x="1377" 
d="M68 0v560h290v-87q30 38 75 63q71 40 158 40h3q83 0 138 -31t81 -81q41 48 99 77q74 35 153 35h7q64 0 111 -17.5t76 -48.5q26 -28 38.5 -63t12.5 -72v-375h-291v286q0 35 -18 56q-24 26 -73 26q-47 0 -70 -26t-23 -72v-270h-292v286q0 35 -18 56q-24 26 -73 26
q-92 0 -92 -98v-270h-292z" />
    <glyph glyph-name="n" unicode="n" horiz-adv-x="919" 
d="M68 560h290v-87q34 40 84 66q69 37 161 37h10q120 0 184 -66q56 -57 56 -149v-361h-293v274q0 94 -99 94q-50 0 -75.5 -28t-25.5 -77v-263h-292v560z" />
    <glyph glyph-name="o" unicode="o" horiz-adv-x="919" 
d="M442 -15q-169 0 -268 53q-79 41 -112 116q-23 52 -23 117v14q0 66 23 119q33 75 112 118q98 53 267 53h36q175 0 274 -53q80 -45 109 -118q20 -52 20 -118v-16q0 -67 -20 -116q-30 -75 -110 -116q-99 -53 -274 -53h-34zM462 165q59 0 89 42q23 31 23 75q0 46 -23 77
q-28 38 -89 38h-6q-62 0 -88 -38q-23 -31 -23 -77t22 -76q27 -41 89 -41h6z" />
    <glyph glyph-name="p" unicode="p" horiz-adv-x="931" 
d="M68 560h292v-66q28 28 74 48q67 29 153 29h5q161 0 237 -86q62 -70 62 -195v-17q0 -54 -16 -103.5t-50 -88.5q-80 -92 -249 -92h-5q-85 0 -146 27q-32 14 -65 41v-245h-292v748zM585 282q0 18 -6.5 37.5t-18.5 35.5q-29 37 -87 37h-2q-59 0 -88 -38q-12 -16 -18 -35
t-6 -36v-8q0 -43 24 -71q27 -35 88 -35h2q58 0 87 36q12 14 18.5 33t6.5 38v6z" />
    <glyph glyph-name="q" unicode="q" horiz-adv-x="931" 
d="M357 571q94 0 159 -29q34 -15 68 -43q6 17 14 61h265v-748h-292v251q-23 -25 -62 -44q-64 -30 -145 -30h-13q-164 0 -244 92q-34 39 -50.5 88.5t-16.5 102.5v17q0 51 16 100t50 88q80 94 241 94h10zM457 392q-52 0 -84 -37q-13 -15 -19.5 -34t-6.5 -37v-5
q0 -20 6.5 -39.5t18.5 -34.5q29 -36 85 -36h6q58 0 87 36q22 28 22 72v8q0 18 -5.5 36.5t-16.5 33.5q-28 37 -87 37h-6z" />
    <glyph glyph-name="r" unicode="r" horiz-adv-x="812" 
d="M68 0v560h290v-91q20 36 62 64q60 40 143 40h10q113 0 164 -75q38 -56 38 -156q0 -65 -4 -90h-286v37q0 40 -14.5 59t-46.5 19q-33 0 -48.5 -19.5t-15.5 -63.5v-284h-292z" />
    <glyph glyph-name="s" unicode="s" horiz-adv-x="842" 
d="M395 -13q-157 0 -247 35q-72 28 -100 79q-18 33 -18 84v1h312q0 -16 15 -26q21 -15 61 -15h2q46 0 62 10q15 9 15 24q0 16 -17 24q-17 7 -69 10l-95 7q-158 7 -223 65q-27 24 -37.5 53t-10.5 65v6q0 77 73 116q86 46 287 46h21q213 0 301 -55q68 -42 68 -127v-1h-302
q-2 16 -15 25q-21 14 -61 14h-6q-43 0 -57 -8q-15 -7 -15 -25q0 -15 18 -23q19 -9 65 -10l98 -4q165 -7 229 -54q29 -21 41 -51t12 -69v-11q0 -39 -13.5 -70.5t-49.5 -55.5q-87 -59 -314 -59h-30z" />
    <glyph glyph-name="t" unicode="t" horiz-adv-x="588" 
d="M540 0h-238q-70 0 -111 37q-46 39 -46 110v231h-109v182h109v167h287v-167h108v-182h-108v-127q0 -31 10.5 -42.5t42.5 -11.5h55v-197z" />
    <glyph glyph-name="u" unicode="u" horiz-adv-x="914" 
d="M846 0h-290v87q-34 -40 -82 -65q-72 -38 -161 -38h-10q-118 0 -181 66q-28 29 -42 67.5t-14 81.5v361h293v-274q0 -42 21 -66q25 -28 74 -28q50 0 75 28t25 77v263h292v-560z" />
    <glyph glyph-name="v" unicode="v" horiz-adv-x="862" 
d="M245 0l-249 560h327l118 -345l117 345h308l-240 -560h-381z" />
    <glyph glyph-name="w" unicode="w" horiz-adv-x="1255" 
d="M542 0h-351l-190 560h310l77 -326l97 326h306l96 -325l77 325h290l-179 -560h-358l-91 286z" />
    <glyph glyph-name="x" unicode="x" horiz-adv-x="833" 
d="M516 0l-104 168l-104 -168h-316l198 291l-195 269h329l100 -152l100 152h312l-192 -269l197 -291h-325z" />
    <glyph glyph-name="y" unicode="y" horiz-adv-x="831" 
d="M103 -13h132q22 0 22 13q0 7 -6.5 20.5t-8.5 17.5l-247 522h321l120 -344l100 344h300l-244 -600q-31 -76 -82.5 -112t-136.5 -36h-270v175z" />
    <glyph glyph-name="z" unicode="z" horiz-adv-x="802" 
d="M747 0h-688v172l318 206h-313v182h672v-172l-328 -202h339v-186z" />
    <glyph glyph-name="Agrave" unicode="&#xc0;" horiz-adv-x="1079" 
d="M769 0l-51 111h-375l-51 -111h-305l353 744h395l357 -744h-323zM633 298l-102 226l-103 -226h205zM399 794l-137 161h315l100 -161h-278z" />
    <glyph glyph-name="Aacute" unicode="&#xc1;" horiz-adv-x="1079" 
d="M769 0l-51 111h-375l-51 -111h-305l353 744h395l357 -744h-323zM633 298l-102 226l-103 -226h205zM676 794h-278l100 161h315z" />
    <glyph glyph-name="Acircumflex" unicode="&#xc2;" horiz-adv-x="1079" 
d="M769 0l-51 111h-375l-51 -111h-305l353 744h395l357 -744h-323zM633 298l-102 226l-103 -226h205zM706 955l149 -163h-259l-59 68l-59 -68h-254l145 163h337z" />
    <glyph glyph-name="Atilde" unicode="&#xc3;" horiz-adv-x="1079" 
d="M769 0l-51 111h-375l-51 -111h-305l353 744h395l357 -744h-323zM633 298l-102 226l-103 -226h205zM449 791h-151v96q0 47 24 77q28 33 82 33h3q29 0 64 -9q26 -7 64 -22q4 -1 8.5 -3t10.5 -4q19 -8 37 -13q9 -4 19 -4q16 0 16 21v38h151v-96q0 -48 -24 -76
q-28 -34 -82 -34h-3q-26 0 -64 10q-26 7 -83 28l-36 14q-11 3 -20 3q-16 0 -16 -21v-38z" />
    <glyph glyph-name="Adieresis" unicode="&#xc4;" horiz-adv-x="1079" 
d="M769 0l-51 111h-375l-51 -111h-305l353 744h395l357 -744h-323zM633 298l-102 226l-103 -226h205zM512 951v-157h-271v157h271zM833 951v-157h-271v157h271z" />
    <glyph glyph-name="Aring" unicode="&#xc5;" horiz-adv-x="1079" 
d="M769 0l-51 111h-375l-51 -111h-305l353 744h395l357 -744h-323zM633 298l-102 226l-103 -226h205zM375 1018q51 44 162 44q113 0 164 -44q38 -33 38 -93q0 -61 -38 -95q-49 -46 -164 -46q-114 0 -163 46q-39 35 -39 95q0 58 40 93zM586 960.5q-15 14.5 -49 14.5
q-33 0 -48.5 -14.5t-15.5 -35.5q0 -23 15.5 -38.5t48.5 -15.5q34 0 49 15t15 39q0 21 -15 35.5z" />
    <glyph glyph-name="AE" unicode="&#xc6;" horiz-adv-x="1451" 
d="M635 0v119h-273l-72 -119h-317l462 744h948v-190h-442v-80h426v-195h-426v-87h448v-192h-754zM635 302v269l-163 -269h163z" />
    <glyph glyph-name="Ccedilla" unicode="&#xc7;" horiz-adv-x="1110" 
d="M746 -281q-55 -43 -191 -43h-157v121h142q23 0 31.5 6.5t8.5 19.5q0 12 -8.5 18.5t-31.5 6.5h-105v144q-150 15 -245 81q-80 55 -115 140q-28 68 -28 146v30q0 86 35 159q45 93 141 145q118 64 309 64h45q199 0 319 -55q96 -44 138 -124q30 -57 30 -134v-11h-317l-6 23
q-13 42 -81 67q-39 14 -105 14q-109 0 -157 -57q-32 -38 -32 -99v-11q0 -62 33 -101q47 -58 157 -58q113 0 161 46q19 16 24 34l6 21h317v-12q0 -68 -29 -126q-42 -81 -135 -127q-117 -59 -311 -60v-42h2q115 0 160 -39q19 -17 26.5 -39t7.5 -52v-4q0 -62 -39 -92z" />
    <glyph glyph-name="Egrave" unicode="&#xc8;" horiz-adv-x="927" 
d="M80 744h778v-190h-472v-80h457v-195h-457v-87h479v-192h-785v744zM331 794l-137 161h315l100 -161h-278z" />
    <glyph glyph-name="Eacute" unicode="&#xc9;" horiz-adv-x="927" 
d="M80 744h778v-190h-472v-80h457v-195h-457v-87h479v-192h-785v744zM608 794h-278l100 161h315z" />
    <glyph glyph-name="Ecircumflex" unicode="&#xca;" horiz-adv-x="927" 
d="M80 744h778v-190h-472v-80h457v-195h-457v-87h479v-192h-785v744zM638 955l149 -163h-259l-59 68l-59 -68h-254l145 163h337z" />
    <glyph glyph-name="Edieresis" unicode="&#xcb;" horiz-adv-x="927" 
d="M80 744h778v-190h-472v-80h457v-195h-457v-87h479v-192h-785v744zM444 951v-157h-271v157h271zM765 951v-157h-271v157h271z" />
    <glyph glyph-name="Igrave" unicode="&#xcc;" horiz-adv-x="465" 
d="M385 744v-744h-305v744h305zM94 794l-137 161h315l100 -161h-278z" />
    <glyph glyph-name="Iacute" unicode="&#xcd;" horiz-adv-x="465" 
d="M385 744v-744h-305v744h305zM371 794h-278l100 161h315z" />
    <glyph glyph-name="Icircumflex" unicode="&#xce;" horiz-adv-x="465" 
d="M385 744v-744h-305v744h305zM401 955l149 -163h-259l-59 68l-59 -68h-254l145 163h337z" />
    <glyph glyph-name="Idieresis" unicode="&#xcf;" horiz-adv-x="465" 
d="M385 744v-744h-305v744h305zM207 951v-157h-271v157h271zM528 951v-157h-271v157h271z" />
    <glyph glyph-name="Ntilde" unicode="&#xd1;" horiz-adv-x="1150" 
d="M779 0l-401 400v-400h-298v744h310l382 -381v381h298v-744h-291zM487 791h-151v96q0 47 24 77q28 33 82 33h3q29 0 64 -9q26 -7 64 -22q4 -1 8.5 -3t10.5 -4q19 -8 37 -13q9 -4 19 -4q16 0 16 21v38h151v-96q0 -48 -24 -76q-28 -34 -82 -34h-3q-26 0 -64 10q-26 7 -83 28
l-36 14q-11 3 -20 3q-16 0 -16 -21v-38z" />
    <glyph glyph-name="Ograve" unicode="&#xd2;" horiz-adv-x="1133" 
d="M589 757q199 0 318 -62q102 -53 145 -144q34 -72 34 -162v-30q0 -92 -34 -161q-45 -94 -145 -147q-120 -64 -318 -64h-46q-195 0 -316 64q-102 54 -145 147q-35 74 -35 161v30q0 91 35 162q45 92 145 144q119 62 316 62h46zM766 381q0 61 -34 100q-49 56 -166 56
q-118 0 -167 -56q-33 -38 -33 -100v-10q0 -63 35 -103q50 -57 166 -57q115 0 165 57q34 39 34 103v10zM428 794l-137 161h315l100 -161h-278z" />
    <glyph glyph-name="Oacute" unicode="&#xd3;" horiz-adv-x="1133" 
d="M589 757q199 0 318 -62q102 -53 145 -144q34 -72 34 -162v-30q0 -92 -34 -161q-45 -94 -145 -147q-120 -64 -318 -64h-46q-195 0 -316 64q-102 54 -145 147q-35 74 -35 161v30q0 91 35 162q45 92 145 144q119 62 316 62h46zM766 381q0 61 -34 100q-49 56 -166 56
q-118 0 -167 -56q-33 -38 -33 -100v-10q0 -63 35 -103q50 -57 166 -57q115 0 165 57q34 39 34 103v10zM705 794h-278l100 161h315z" />
    <glyph glyph-name="Ocircumflex" unicode="&#xd4;" horiz-adv-x="1133" 
d="M589 757q199 0 318 -62q102 -53 145 -144q34 -72 34 -162v-30q0 -92 -34 -161q-45 -94 -145 -147q-120 -64 -318 -64h-46q-195 0 -316 64q-102 54 -145 147q-35 74 -35 161v30q0 91 35 162q45 92 145 144q119 62 316 62h46zM766 381q0 61 -34 100q-49 56 -166 56
q-118 0 -167 -56q-33 -38 -33 -100v-10q0 -63 35 -103q50 -57 166 -57q115 0 165 57q34 39 34 103v10zM735 955l149 -163h-259l-59 68l-59 -68h-254l145 163h337z" />
    <glyph glyph-name="Otilde" unicode="&#xd5;" horiz-adv-x="1133" 
d="M589 757q199 0 318 -62q102 -53 145 -144q34 -72 34 -162v-30q0 -92 -34 -161q-45 -94 -145 -147q-120 -64 -318 -64h-46q-195 0 -316 64q-102 54 -145 147q-35 74 -35 161v30q0 91 35 162q45 92 145 144q119 62 316 62h46zM766 381q0 61 -34 100q-49 56 -166 56
q-118 0 -167 -56q-33 -38 -33 -100v-10q0 -63 35 -103q50 -57 166 -57q115 0 165 57q34 39 34 103v10zM478 791h-151v96q0 47 24 77q28 33 82 33h3q29 0 64 -9q26 -7 64 -22q4 -1 8.5 -3t10.5 -4q19 -8 37 -13q9 -4 19 -4q16 0 16 21v38h151v-96q0 -48 -24 -76
q-28 -34 -82 -34h-3q-26 0 -64 10q-26 7 -83 28l-36 14q-11 3 -20 3q-16 0 -16 -21v-38z" />
    <glyph glyph-name="Odieresis" unicode="&#xd6;" horiz-adv-x="1133" 
d="M589 757q199 0 318 -62q102 -53 145 -144q34 -72 34 -162v-30q0 -92 -34 -161q-45 -94 -145 -147q-120 -64 -318 -64h-46q-195 0 -316 64q-102 54 -145 147q-35 74 -35 161v30q0 91 35 162q45 92 145 144q119 62 316 62h46zM766 381q0 61 -34 100q-49 56 -166 56
q-118 0 -167 -56q-33 -38 -33 -100v-10q0 -63 35 -103q50 -57 166 -57q115 0 165 57q34 39 34 103v10zM541 951v-157h-271v157h271zM862 951v-157h-271v157h271z" />
    <glyph glyph-name="Ugrave" unicode="&#xd9;" horiz-adv-x="1139" 
d="M230 64q-95 58 -130 166q-23 70 -23 172v342h304v-342q0 -76 36 -117q45 -53 153 -53h4q104 0 150 53q34 40 34 117v342h304v-342q0 -99 -25 -172q-37 -108 -130 -166q-117 -75 -319 -75h-31q-209 0 -327 75zM432 794l-137 161h315l100 -161h-278z" />
    <glyph glyph-name="Uacute" unicode="&#xda;" horiz-adv-x="1139" 
d="M230 64q-95 58 -130 166q-23 70 -23 172v342h304v-342q0 -76 36 -117q45 -53 153 -53h4q104 0 150 53q34 40 34 117v342h304v-342q0 -99 -25 -172q-37 -108 -130 -166q-117 -75 -319 -75h-31q-209 0 -327 75zM709 794h-278l100 161h315z" />
    <glyph glyph-name="Ucircumflex" unicode="&#xdb;" horiz-adv-x="1139" 
d="M230 64q-95 58 -130 166q-23 70 -23 172v342h304v-342q0 -76 36 -117q45 -53 153 -53h4q104 0 150 53q34 40 34 117v342h304v-342q0 -99 -25 -172q-37 -108 -130 -166q-117 -75 -319 -75h-31q-209 0 -327 75zM739 955l149 -163h-259l-59 68l-59 -68h-254l145 163h337z
" />
    <glyph glyph-name="Udieresis" unicode="&#xdc;" horiz-adv-x="1139" 
d="M230 64q-95 58 -130 166q-23 70 -23 172v342h304v-342q0 -76 36 -117q45 -53 153 -53h4q104 0 150 53q34 40 34 117v342h304v-342q0 -99 -25 -172q-37 -108 -130 -166q-117 -75 -319 -75h-31q-209 0 -327 75zM545 951v-157h-271v157h271zM866 951v-157h-271v157h271z" />
    <glyph glyph-name="Yacute" unicode="&#xdd;" horiz-adv-x="1044" 
d="M376 0v262l-399 482h369l195 -247l200 247h326l-387 -482v-262h-304zM682 794h-278l100 161h315z" />
    <glyph glyph-name="germandbls" unicode="&#xdf;" horiz-adv-x="944" 
d="M359 0h-291v538q0 63 20 105q27 58 103 91q89 39 251 39h41q217 0 306 -60q62 -44 62 -119v-4q0 -57 -48 -97q-43 -35 -115 -42q40 -4 78 -17t68 -36q72 -57 72 -155v-8q0 -103 -66 -160q-85 -75 -276 -75h-152v193h117q39 0 55.5 16t16.5 40v1q0 54 -73 54h-116v190h77
q41 0 61 17q14 13 14 33q0 23 -16 35q-21 16 -80 16h-7q-61 0 -84 -20q-18 -17 -18 -55v-520z" />
    <glyph glyph-name="agrave" unicode="&#xe0;" horiz-adv-x="867" 
d="M449 21q-68 -33 -156 -33h-18q-116 0 -176.5 48t-60.5 134v5q0 40 14 69.5t44 50.5q61 42 209 49l161 8q21 1 29.5 7.5t8.5 21.5v1q0 18 -15 30q-17 11 -65 11h-7q-50 0 -70 -20q-13 -12 -13 -28h-283v1q0 38 12 71.5t45 60.5q82 67 293 67h35q216 0 299 -64
q33 -26 44.5 -59t11.5 -75v-166q0 -19 16 -19h37v-192h-236q-37 0 -65 23q-22 18 -32 43q-29 -29 -62 -45zM477 166q27 24 27 63v19l-89 -14q-53 -7 -74 -20q-9 -7 -13 -14.5t-4 -19.5v-1q0 -20 17.5 -31t49.5 -11q54 0 86 29zM453 775l105 -164h-276l-143 164h314z" />
    <glyph glyph-name="aacute" unicode="&#xe1;" horiz-adv-x="867" 
d="M449 21q-68 -33 -156 -33h-18q-116 0 -176.5 48t-60.5 134v5q0 40 14 69.5t44 50.5q61 42 209 49l161 8q21 1 29.5 7.5t8.5 21.5v1q0 18 -15 30q-17 11 -65 11h-7q-50 0 -70 -20q-13 -12 -13 -28h-283v1q0 38 12 71.5t45 60.5q82 67 293 67h35q216 0 299 -64
q33 -26 44.5 -59t11.5 -75v-166q0 -19 16 -19h37v-192h-236q-37 0 -65 23q-22 18 -32 43q-29 -29 -62 -45zM477 166q27 24 27 63v19l-89 -14q-53 -7 -74 -20q-9 -7 -13 -14.5t-4 -19.5v-1q0 -20 17.5 -31t49.5 -11q54 0 86 29zM274 611l104 164h314l-142 -164h-276z" />
    <glyph glyph-name="acircumflex" unicode="&#xe2;" horiz-adv-x="867" 
d="M449 21q-68 -33 -156 -33h-18q-116 0 -176.5 48t-60.5 134v5q0 40 14 69.5t44 50.5q61 42 209 49l161 8q21 1 29.5 7.5t8.5 21.5v1q0 18 -15 30q-17 11 -65 11h-7q-50 0 -70 -20q-13 -12 -13 -28h-283v1q0 38 12 71.5t45 60.5q82 67 293 67h35q216 0 299 -64
q33 -26 44.5 -59t11.5 -75v-166q0 -19 16 -19h37v-192h-236q-37 0 -65 23q-22 18 -32 43q-29 -29 -62 -45zM477 166q27 24 27 63v19l-89 -14q-53 -7 -74 -20q-9 -7 -13 -14.5t-4 -19.5v-1q0 -20 17.5 -31t49.5 -11q54 0 86 29zM592 775l142 -166h-259l-56 68l-55 -68h-256
l140 166h344z" />
    <glyph glyph-name="atilde" unicode="&#xe3;" horiz-adv-x="867" 
d="M449 21q-68 -33 -156 -33h-18q-116 0 -176.5 48t-60.5 134v5q0 40 14 69.5t44 50.5q61 42 209 49l161 8q21 1 29.5 7.5t8.5 21.5v1q0 18 -15 30q-17 11 -65 11h-7q-50 0 -70 -20q-13 -12 -13 -28h-283v1q0 38 12 71.5t45 60.5q82 67 293 67h35q216 0 299 -64
q33 -26 44.5 -59t11.5 -75v-166q0 -19 16 -19h37v-192h-236q-37 0 -65 23q-22 18 -32 43q-29 -29 -62 -45zM477 166q27 24 27 63v19l-89 -14q-53 -7 -74 -20q-9 -7 -13 -14.5t-4 -19.5v-1q0 -20 17.5 -31t49.5 -11q54 0 86 29zM657 718q0 -46 -24 -76q-28 -34 -79 -34h-4
q-31 0 -63 9q-29 8 -81 30q-23 11 -36 15q-15 5 -21 5q-16 0 -16 -21v-42h-151v100q0 46 25 77q26 33 78 33h4q35 0 63 -8q21 -6 81 -31q23 -11 36 -15q15 -5 21 -5q16 0 16 21v42h151v-100z" />
    <glyph glyph-name="adieresis" unicode="&#xe4;" horiz-adv-x="867" 
d="M449 21q-68 -33 -156 -33h-18q-116 0 -176.5 48t-60.5 134v5q0 40 14 69.5t44 50.5q61 42 209 49l161 8q21 1 29.5 7.5t8.5 21.5v1q0 18 -15 30q-17 11 -65 11h-7q-50 0 -70 -20q-13 -12 -13 -28h-283v1q0 38 12 71.5t45 60.5q82 67 293 67h35q216 0 299 -64
q33 -26 44.5 -59t11.5 -75v-166q0 -19 16 -19h37v-192h-236q-37 0 -65 23q-22 18 -32 43q-29 -29 -62 -45zM477 166q27 24 27 63v19l-89 -14q-53 -7 -74 -20q-9 -7 -13 -14.5t-4 -19.5v-1q0 -20 17.5 -31t49.5 -11q54 0 86 29zM395 763v-157h-268v157h268zM711 763v-157
h-268v157h268z" />
    <glyph glyph-name="aring" unicode="&#xe5;" horiz-adv-x="867" 
d="M449 21q-68 -33 -156 -33h-18q-116 0 -176.5 48t-60.5 134v5q0 40 14 69.5t44 50.5q61 42 209 49l161 8q21 1 29.5 7.5t8.5 21.5v1q0 18 -15 30q-17 11 -65 11h-7q-50 0 -70 -20q-13 -12 -13 -28h-283v1q0 38 12 71.5t45 60.5q82 67 293 67h35q216 0 299 -64
q33 -26 44.5 -59t11.5 -75v-166q0 -19 16 -19h37v-192h-236q-37 0 -65 23q-22 18 -32 43q-29 -29 -62 -45zM477 166q27 24 27 63v19l-89 -14q-53 -7 -74 -20q-9 -7 -13 -14.5t-4 -19.5v-1q0 -20 17.5 -31t49.5 -11q54 0 86 29zM260 834q49 44 159 44q111 0 160 -44
q37 -33 37 -93q0 -61 -37 -95q-48 -46 -160 -46t-160 46q-37 34 -37 95q0 59 38 93zM375 702.5q14 -15.5 44 -15.5q31 0 45 15t14 39q0 21 -14 35.5t-45 14.5q-30 0 -44 -14.5t-14 -35.5q0 -23 14 -38.5z" />
    <glyph glyph-name="ae" unicode="&#xe6;" horiz-adv-x="1376" 
d="M1336 187q-6 -82 -71 -130q-97 -72 -317 -72h-49q-118 2 -191.5 29.5t-113.5 77.5q-31 -41 -85 -68q-72 -35 -175 -35h-20q-138 0 -207 47.5t-69 133.5v5q0 40 14 69t45 50q60 39 210 49l155 9q22 2 30 8t8 19v2q0 18 -14 27q-19 11 -65 11h-6q-48 0 -69 -19
q-13 -11 -13 -27h-282v1q0 40 11 73t44 59q80 65 293 65h39q170 0 237 -59q69 63 219 63h45q232 0 327 -98q40 -42 56 -97.5t16 -123.5v-23h-529q8 -43 37 -63t86 -20q51 0 76 16q11 6 15 12l6 9h307zM844.5 407.5q-25.5 -18.5 -34.5 -58.5h220q-2 37 -24 55q-29 22 -84 22
q-52 0 -77.5 -18.5zM475 167q25 24 25 62v19l-88 -15q-51 -7 -71 -20q-17 -10 -17 -33v-1q0 -41 65 -41q55 0 86 29z" />
    <glyph glyph-name="ccedilla" unicode="&#xe7;" horiz-adv-x="894" 
d="M635 -281q-55 -43 -191 -43h-157v121h142q23 0 31.5 6.5t8.5 19.5q0 12 -8.5 18.5t-31.5 6.5h-105v143q-167 21 -236 117q-50 69 -50 173v14q0 114 69 184q96 96 317 96h36q173 0 270 -46q78 -37 108 -100q18 -40 18 -96v-1h-304q-3 23 -20 39q-27 25 -78 25h-8
q-54 0 -80 -33q-22 -27 -22 -77v-1q0 -51 22 -81q26 -38 79 -38h7q53 0 80 29q18 19 20 45h304v-1q0 -57 -20 -103q-31 -67 -105 -104q-94 -47 -253 -47v-40h2q115 0 160 -39q19 -17 26.5 -39t7.5 -52v-4q0 -62 -39 -92z" />
    <glyph glyph-name="egrave" unicode="&#xe8;" horiz-adv-x="915" 
d="M875 187q-6 -81 -72 -130q-98 -72 -318 -72h-49q-226 0 -324 100q-39 39 -56 88t-17 100v14q0 119 74 192q98 96 316 96h46q233 0 329 -98q40 -42 56.5 -97.5t16.5 -123.5v-23h-534q9 -43 38.5 -63t87.5 -20q49 0 76 16q12 7 16 12l6 9h308zM379 407.5
q-26 -18.5 -34 -58.5h223q-2 37 -25 55q-29 22 -86 22q-52 0 -78 -18.5zM488 775l105 -164h-276l-143 164h314z" />
    <glyph glyph-name="eacute" unicode="&#xe9;" horiz-adv-x="915" 
d="M875 187q-6 -81 -72 -130q-98 -72 -318 -72h-49q-226 0 -324 100q-39 39 -56 88t-17 100v14q0 119 74 192q98 96 316 96h46q233 0 329 -98q40 -42 56.5 -97.5t16.5 -123.5v-23h-534q9 -43 38.5 -63t87.5 -20q49 0 76 16q12 7 16 12l6 9h308zM379 407.5
q-26 -18.5 -34 -58.5h223q-2 37 -25 55q-29 22 -86 22q-52 0 -78 -18.5zM316 611l104 164h314l-142 -164h-276z" />
    <glyph glyph-name="ecircumflex" unicode="&#xea;" horiz-adv-x="915" 
d="M875 187q-6 -81 -72 -130q-98 -72 -318 -72h-49q-226 0 -324 100q-39 39 -56 88t-17 100v14q0 119 74 192q98 96 316 96h46q233 0 329 -98q40 -42 56.5 -97.5t16.5 -123.5v-23h-534q9 -43 38.5 -63t87.5 -20q49 0 76 16q12 7 16 12l6 9h308zM379 407.5
q-26 -18.5 -34 -58.5h223q-2 37 -25 55q-29 22 -86 22q-52 0 -78 -18.5zM627 775l142 -166h-259l-56 68l-55 -68h-256l140 166h344z" />
    <glyph glyph-name="edieresis" unicode="&#xeb;" horiz-adv-x="915" 
d="M875 187q-6 -81 -72 -130q-98 -72 -318 -72h-49q-226 0 -324 100q-39 39 -56 88t-17 100v14q0 119 74 192q98 96 316 96h46q233 0 329 -98q40 -42 56.5 -97.5t16.5 -123.5v-23h-534q9 -43 38.5 -63t87.5 -20q49 0 76 16q12 7 16 12l6 9h308zM379 407.5
q-26 -18.5 -34 -58.5h223q-2 37 -25 55q-29 22 -86 22q-52 0 -78 -18.5zM430 763v-157h-268v157h268zM746 763v-157h-268v157h268z" />
    <glyph glyph-name="igrave" unicode="&#xec;" horiz-adv-x="428" 
d="M259 775l93 -164h-276l-118 164h301zM360 560v-560h-292v560h292z" />
    <glyph glyph-name="iacute" unicode="&#xed;" horiz-adv-x="428" 
d="M78 611l89 164h300l-113 -164h-276zM360 560v-560h-292v560h292z" />
    <glyph glyph-name="icircumflex" unicode="&#xee;" horiz-adv-x="428" 
d="M378 775l117 -166h-236l-45 68l-45 -68h-233l115 166h327zM360 560v-560h-292v560h292z" />
    <glyph glyph-name="idieresis" unicode="&#xef;" horiz-adv-x="428" 
d="M190 763v-157h-220v157h220zM458 763v-157h-220v157h220zM360 560v-560h-292v560h292z" />
    <glyph glyph-name="ntilde" unicode="&#xf1;" horiz-adv-x="919" 
d="M68 560h290v-87q34 40 84 66q69 37 161 37h10q120 0 184 -66q56 -57 56 -149v-361h-293v274q0 94 -99 94q-50 0 -75.5 -28t-25.5 -77v-263h-292v560zM699 718q0 -46 -24 -76q-28 -34 -79 -34h-4q-31 0 -63 9q-29 8 -81 30q-23 11 -36 15q-15 5 -21 5q-16 0 -16 -21v-42
h-151v100q0 46 25 77q26 33 78 33h4q35 0 63 -8q21 -6 81 -31q23 -11 36 -15q15 -5 21 -5q16 0 16 21v42h151v-100z" />
    <glyph glyph-name="ograve" unicode="&#xf2;" horiz-adv-x="919" 
d="M442 -15q-169 0 -268 53q-79 41 -112 116q-23 52 -23 117v14q0 66 23 119q33 75 112 118q98 53 267 53h36q175 0 274 -53q80 -45 109 -118q20 -52 20 -118v-16q0 -67 -20 -116q-30 -75 -110 -116q-99 -53 -274 -53h-34zM462 165q59 0 89 42q23 31 23 75q0 46 -23 77
q-28 38 -89 38h-6q-62 0 -88 -38q-23 -31 -23 -77t22 -76q27 -41 89 -41h6zM493 775l105 -164h-276l-143 164h314z" />
    <glyph glyph-name="oacute" unicode="&#xf3;" horiz-adv-x="919" 
d="M442 -15q-169 0 -268 53q-79 41 -112 116q-23 52 -23 117v14q0 66 23 119q33 75 112 118q98 53 267 53h36q175 0 274 -53q80 -45 109 -118q20 -52 20 -118v-16q0 -67 -20 -116q-30 -75 -110 -116q-99 -53 -274 -53h-34zM462 165q59 0 89 42q23 31 23 75q0 46 -23 77
q-28 38 -89 38h-6q-62 0 -88 -38q-23 -31 -23 -77t22 -76q27 -41 89 -41h6zM321 611l104 164h314l-142 -164h-276z" />
    <glyph glyph-name="ocircumflex" unicode="&#xf4;" horiz-adv-x="919" 
d="M442 -15q-169 0 -268 53q-79 41 -112 116q-23 52 -23 117v14q0 66 23 119q33 75 112 118q98 53 267 53h36q175 0 274 -53q80 -45 109 -118q20 -52 20 -118v-16q0 -67 -20 -116q-30 -75 -110 -116q-99 -53 -274 -53h-34zM462 165q59 0 89 42q23 31 23 75q0 46 -23 77
q-28 38 -89 38h-6q-62 0 -88 -38q-23 -31 -23 -77t22 -76q27 -41 89 -41h6zM632 775l142 -166h-259l-56 68l-55 -68h-256l140 166h344z" />
    <glyph glyph-name="otilde" unicode="&#xf5;" horiz-adv-x="919" 
d="M442 -15q-169 0 -268 53q-79 41 -112 116q-23 52 -23 117v14q0 66 23 119q33 75 112 118q98 53 267 53h36q175 0 274 -53q80 -45 109 -118q20 -52 20 -118v-16q0 -67 -20 -116q-30 -75 -110 -116q-99 -53 -274 -53h-34zM462 165q59 0 89 42q23 31 23 75q0 46 -23 77
q-28 38 -89 38h-6q-62 0 -88 -38q-23 -31 -23 -77t22 -76q27 -41 89 -41h6zM697 718q0 -46 -24 -76q-28 -34 -79 -34h-4q-31 0 -63 9q-29 8 -81 30q-23 11 -36 15q-15 5 -21 5q-16 0 -16 -21v-42h-151v100q0 46 25 77q26 33 78 33h4q35 0 63 -8q21 -6 81 -31q23 -11 36 -15
q15 -5 21 -5q16 0 16 21v42h151v-100z" />
    <glyph glyph-name="odieresis" unicode="&#xf6;" horiz-adv-x="919" 
d="M442 -15q-169 0 -268 53q-79 41 -112 116q-23 52 -23 117v14q0 66 23 119q33 75 112 118q98 53 267 53h36q175 0 274 -53q80 -45 109 -118q20 -52 20 -118v-16q0 -67 -20 -116q-30 -75 -110 -116q-99 -53 -274 -53h-34zM462 165q59 0 89 42q23 31 23 75q0 46 -23 77
q-28 38 -89 38h-6q-62 0 -88 -38q-23 -31 -23 -77t22 -76q27 -41 89 -41h6zM435 763v-157h-268v157h268zM751 763v-157h-268v157h268z" />
    <glyph glyph-name="ugrave" unicode="&#xf9;" horiz-adv-x="914" 
d="M846 0h-290v87q-34 -40 -82 -65q-72 -38 -161 -38h-10q-118 0 -181 66q-28 29 -42 67.5t-14 81.5v361h293v-274q0 -42 21 -66q25 -28 74 -28q50 0 75 28t25 77v263h292v-560zM490 775l105 -164h-276l-143 164h314z" />
    <glyph glyph-name="uacute" unicode="&#xfa;" horiz-adv-x="914" 
d="M846 0h-290v87q-34 -40 -82 -65q-72 -38 -161 -38h-10q-118 0 -181 66q-28 29 -42 67.5t-14 81.5v361h293v-274q0 -42 21 -66q25 -28 74 -28q50 0 75 28t25 77v263h292v-560zM318 611l104 164h314l-142 -164h-276z" />
    <glyph glyph-name="ucircumflex" unicode="&#xfb;" horiz-adv-x="914" 
d="M846 0h-290v87q-34 -40 -82 -65q-72 -38 -161 -38h-10q-118 0 -181 66q-28 29 -42 67.5t-14 81.5v361h293v-274q0 -42 21 -66q25 -28 74 -28q50 0 75 28t25 77v263h292v-560zM629 775l142 -166h-259l-56 68l-55 -68h-256l140 166h344z" />
    <glyph glyph-name="udieresis" unicode="&#xfc;" horiz-adv-x="914" 
d="M846 0h-290v87q-34 -40 -82 -65q-72 -38 -161 -38h-10q-118 0 -181 66q-28 29 -42 67.5t-14 81.5v361h293v-274q0 -42 21 -66q25 -28 74 -28q50 0 75 28t25 77v263h292v-560zM432 763v-157h-268v157h268zM748 763v-157h-268v157h268z" />
    <glyph glyph-name="yacute" unicode="&#xfd;" horiz-adv-x="831" 
d="M103 -13h132q22 0 22 13q0 7 -6.5 20.5t-8.5 17.5l-247 522h321l120 -344l100 344h300l-244 -600q-31 -76 -82.5 -112t-136.5 -36h-270v175zM289 611l104 164h314l-142 -164h-276z" />
    <glyph glyph-name="ydieresis" unicode="&#xff;" horiz-adv-x="831" 
d="M103 -13h132q22 0 22 13q0 7 -6.5 20.5t-8.5 17.5l-247 522h321l120 -344l100 344h300l-244 -600q-31 -76 -82.5 -112t-136.5 -36h-270v175zM403 763v-157h-268v157h268zM719 763v-157h-268v157h268z" />
    <glyph glyph-name="Amacron" unicode="&#x100;" horiz-adv-x="1079" 
d="M769 0l-51 111h-375l-51 -111h-305l353 744h395l357 -744h-323zM633 298l-102 226l-103 -226h205zM311 803v141h453v-141h-453z" />
    <glyph glyph-name="amacron" unicode="&#x101;" horiz-adv-x="867" 
d="M449 21q-68 -33 -156 -33h-18q-116 0 -176.5 48t-60.5 134v5q0 40 14 69.5t44 50.5q61 42 209 49l161 8q21 1 29.5 7.5t8.5 21.5v1q0 18 -15 30q-17 11 -65 11h-7q-50 0 -70 -20q-13 -12 -13 -28h-283v1q0 38 12 71.5t45 60.5q82 67 293 67h35q216 0 299 -64
q33 -26 44.5 -59t11.5 -75v-166q0 -19 16 -19h37v-192h-236q-37 0 -65 23q-22 18 -32 43q-29 -29 -62 -45zM477 166q27 24 27 63v19l-89 -14q-53 -7 -74 -20q-9 -7 -13 -14.5t-4 -19.5v-1q0 -20 17.5 -31t49.5 -11q54 0 86 29zM197 616v141h453v-141h-453z" />
    <glyph glyph-name="Abreve" unicode="&#x102;" horiz-adv-x="1079" 
d="M769 0l-51 111h-375l-51 -111h-305l353 744h395l357 -744h-323zM633 298l-102 226l-103 -226h205zM327 859q-40 47 -40 122h187q0 -22 12 -37q16 -21 50 -21h2q33 0 49 21q12 17 12 37h184q0 -31 -10.5 -63t-34.5 -59q-63 -70 -195 -70h-16q-142 0 -200 70z" />
    <glyph glyph-name="abreve" unicode="&#x103;" horiz-adv-x="867" 
d="M449 21q-68 -33 -156 -33h-18q-116 0 -176.5 48t-60.5 134v5q0 40 14 69.5t44 50.5q61 42 209 49l161 8q21 1 29.5 7.5t8.5 21.5v1q0 18 -15 30q-17 11 -65 11h-7q-50 0 -70 -20q-13 -12 -13 -28h-283v1q0 38 12 71.5t45 60.5q82 67 293 67h35q216 0 299 -64
q33 -26 44.5 -59t11.5 -75v-166q0 -19 16 -19h37v-192h-236q-37 0 -65 23q-22 18 -32 43q-29 -29 -62 -45zM477 166q27 24 27 63v19l-89 -14q-53 -7 -74 -20q-9 -7 -13 -14.5t-4 -19.5v-1q0 -20 17.5 -31t49.5 -11q54 0 86 29zM219 678q-23 28 -33.5 60.5t-10.5 63.5h186
q0 -22 10 -37q15 -24 49 -24h2q34 0 48 23q11 17 11 38h186q0 -73 -43 -124q-60 -71 -196 -71h-14q-135 0 -195 71z" />
    <glyph glyph-name="Aogonek" unicode="&#x104;" horiz-adv-x="1079" 
d="M769 0l-51 111h-375l-51 -111h-305l353 744h395l357 -744h-323zM633 298l-102 226l-103 -226h205zM893 -188q-65 0 -95 17.5t-30 53.5v3q0 41 43 65q44 25 162 49h119q-26 -14 -51 -29q-20 -14 -20 -27q0 -21 38 -21h33v-111h-199z" />
    <glyph glyph-name="aogonek" unicode="&#x105;" horiz-adv-x="867" 
d="M773 -56q0 -21 38 -21h33v-111h-199q-65 0 -95 17.5t-30 53.5v3q0 41 43 65q44 25 162 49h-117q-37 0 -65 23q-22 18 -32 43q-29 -29 -62 -45q-68 -33 -156 -33h-18q-116 0 -176.5 48t-60.5 134v5q0 40 14 69.5t44 50.5q61 42 209 49l161 8q21 1 29.5 7.5t8.5 21.5v1
q0 18 -15 30q-17 11 -65 11h-7q-50 0 -70 -20q-13 -12 -13 -28h-283v1q0 38 12 71.5t45 60.5q82 67 293 67h35q216 0 299 -64q33 -26 44.5 -59t11.5 -75v-166q0 -19 16 -19h37v-192q-26 -14 -51 -29q-20 -14 -20 -27zM504 248l-89 -14q-53 -7 -74 -20q-9 -7 -13 -14.5
t-4 -19.5v-1q0 -20 17.5 -31t49.5 -11q54 0 86 29q27 24 27 63v19z" />
    <glyph glyph-name="Cacute" unicode="&#x106;" horiz-adv-x="1110" 
d="M532 -13q-193 0 -308 65q-98 53 -142 148q-35 74 -35 159v30q0 86 35 159q45 93 141 145q118 64 309 64h45q199 0 319 -55q96 -44 138 -124q30 -57 30 -134v-11h-317l-6 23q-13 42 -81 67q-39 14 -105 14q-109 0 -157 -57q-32 -38 -32 -99v-11q0 -62 33 -101
q47 -58 157 -58q113 0 161 46q19 16 24 34l6 21h317v-12q0 -69 -30 -128q-41 -80 -138 -127q-119 -58 -319 -58h-45zM694 794h-278l100 161h315z" />
    <glyph glyph-name="cacute" unicode="&#x107;" horiz-adv-x="894" 
d="M835 136q-31 -67 -105 -104q-96 -47 -256 -47h-49q-226 0 -320 103q-67 73 -67 193v14q0 114 69 184q96 96 317 96h36q173 0 270 -46q78 -37 108 -100q18 -40 18 -96v-1h-304q-3 23 -20 39q-27 25 -78 25h-8q-54 0 -80 -33q-22 -27 -22 -77v-1q0 -51 22 -81
q26 -38 79 -38h7q53 0 80 29q18 19 20 45h304v-1q0 -57 -21 -103zM304 611l104 164h314l-142 -164h-276z" />
    <glyph glyph-name="Ccircumflex" unicode="&#x108;" horiz-adv-x="1110" 
d="M532 -13q-193 0 -308 65q-98 53 -142 148q-35 74 -35 159v30q0 86 35 159q45 93 141 145q118 64 309 64h45q199 0 319 -55q96 -44 138 -124q30 -57 30 -134v-11h-317l-6 23q-13 42 -81 67q-39 14 -105 14q-109 0 -157 -57q-32 -38 -32 -99v-11q0 -62 33 -101
q47 -58 157 -58q113 0 161 46q19 16 24 34l6 21h317v-12q0 -69 -30 -128q-41 -80 -138 -127q-119 -58 -319 -58h-45zM724 955l149 -163h-259l-59 68l-59 -68h-254l145 163h337z" />
    <glyph glyph-name="ccircumflex" unicode="&#x109;" horiz-adv-x="894" 
d="M835 136q-31 -67 -105 -104q-96 -47 -256 -47h-49q-226 0 -320 103q-67 73 -67 193v14q0 114 69 184q96 96 317 96h36q173 0 270 -46q78 -37 108 -100q18 -40 18 -96v-1h-304q-3 23 -20 39q-27 25 -78 25h-8q-54 0 -80 -33q-22 -27 -22 -77v-1q0 -51 22 -81
q26 -38 79 -38h7q53 0 80 29q18 19 20 45h304v-1q0 -57 -21 -103zM615 775l142 -166h-259l-56 68l-55 -68h-256l140 166h344z" />
    <glyph glyph-name="Cdotaccent" unicode="&#x10a;" horiz-adv-x="1110" 
d="M532 -13q-193 0 -308 65q-98 53 -142 148q-35 74 -35 159v30q0 86 35 159q45 93 141 145q118 64 309 64h45q199 0 319 -55q96 -44 138 -124q30 -57 30 -134v-11h-317l-6 23q-13 42 -81 67q-39 14 -105 14q-109 0 -157 -57q-32 -38 -32 -99v-11q0 -62 33 -101
q47 -58 157 -58q113 0 161 46q19 16 24 34l6 21h317v-12q0 -69 -30 -128q-41 -80 -138 -127q-119 -58 -319 -58h-45zM702 951v-157h-292v157h292z" />
    <glyph glyph-name="cdotaccent" unicode="&#x10b;" horiz-adv-x="894" 
d="M835 136q-31 -67 -105 -104q-96 -47 -256 -47h-49q-226 0 -320 103q-67 73 -67 193v14q0 114 69 184q96 96 317 96h36q173 0 270 -46q78 -37 108 -100q18 -40 18 -96v-1h-304q-3 23 -20 39q-27 25 -78 25h-8q-54 0 -80 -33q-22 -27 -22 -77v-1q0 -51 22 -81
q26 -38 79 -38h7q53 0 80 29q18 19 20 45h304v-1q0 -57 -21 -103zM589 763v-157h-292v157h292z" />
    <glyph glyph-name="Ccaron" unicode="&#x10c;" horiz-adv-x="1110" 
d="M532 -13q-193 0 -308 65q-98 53 -142 148q-35 74 -35 159v30q0 86 35 159q45 93 141 145q118 64 309 64h45q199 0 319 -55q96 -44 138 -124q30 -57 30 -134v-11h-317l-6 23q-13 42 -81 67q-39 14 -105 14q-109 0 -157 -57q-32 -38 -32 -99v-11q0 -62 33 -101
q47 -58 157 -58q113 0 161 46q19 16 24 34l6 21h317v-12q0 -69 -30 -128q-41 -80 -138 -127q-119 -58 -319 -58h-45zM389 794l-149 161h259l59 -67l59 67h254l-145 -161h-337z" />
    <glyph glyph-name="ccaron" unicode="&#x10d;" horiz-adv-x="894" 
d="M835 136q-31 -67 -105 -104q-96 -47 -256 -47h-49q-226 0 -320 103q-67 73 -67 193v14q0 114 69 184q96 96 317 96h36q173 0 270 -46q78 -37 108 -100q18 -40 18 -96v-1h-304q-3 23 -20 39q-27 25 -78 25h-8q-54 0 -80 -33q-22 -27 -22 -77v-1q0 -51 22 -81
q26 -38 79 -38h7q53 0 80 29q18 19 20 45h304v-1q0 -57 -21 -103zM268 611l-142 164h259l56 -67l55 67h256l-140 -164h-344z" />
    <glyph glyph-name="Emacron" unicode="&#x112;" horiz-adv-x="927" 
d="M80 744h778v-190h-472v-80h457v-195h-457v-87h479v-192h-785v744zM243 803v141h453v-141h-453z" />
    <glyph glyph-name="emacron" unicode="&#x113;" horiz-adv-x="915" 
d="M875 187q-6 -81 -72 -130q-98 -72 -318 -72h-49q-226 0 -324 100q-39 39 -56 88t-17 100v14q0 119 74 192q98 96 316 96h46q233 0 329 -98q40 -42 56.5 -97.5t16.5 -123.5v-23h-534q9 -43 38.5 -63t87.5 -20q49 0 76 16q12 7 16 12l6 9h308zM379 407.5
q-26 -18.5 -34 -58.5h223q-2 37 -25 55q-29 22 -86 22q-52 0 -78 -18.5zM228 616v141h453v-141h-453z" />
    <glyph glyph-name="Ebreve" unicode="&#x114;" horiz-adv-x="927" 
d="M80 744h778v-190h-472v-80h457v-195h-457v-87h479v-192h-785v744zM259 859q-40 47 -40 122h187q0 -22 12 -37q16 -21 50 -21h2q33 0 49 21q12 17 12 37h184q0 -31 -10.5 -63t-34.5 -59q-63 -70 -195 -70h-16q-142 0 -200 70z" />
    <glyph glyph-name="ebreve" unicode="&#x115;" horiz-adv-x="915" 
d="M875 187q-6 -81 -72 -130q-98 -72 -318 -72h-49q-226 0 -324 100q-39 39 -56 88t-17 100v14q0 119 74 192q98 96 316 96h46q233 0 329 -98q40 -42 56.5 -97.5t16.5 -123.5v-23h-534q9 -43 38.5 -63t87.5 -20q49 0 76 16q12 7 16 12l6 9h308zM379 407.5
q-26 -18.5 -34 -58.5h223q-2 37 -25 55q-29 22 -86 22q-52 0 -78 -18.5zM252 678q-23 28 -33.5 60.5t-10.5 63.5h186q0 -22 10 -37q15 -24 49 -24h2q34 0 48 23q11 17 11 38h186q0 -73 -43 -124q-60 -71 -196 -71h-14q-135 0 -195 71z" />
    <glyph glyph-name="Edotaccent" unicode="&#x116;" horiz-adv-x="927" 
d="M80 744h778v-190h-472v-80h457v-195h-457v-87h479v-192h-785v744zM616 951v-157h-292v157h292z" />
    <glyph glyph-name="edotaccent" unicode="&#x117;" horiz-adv-x="915" 
d="M875 187q-6 -81 -72 -130q-98 -72 -318 -72h-49q-226 0 -324 100q-39 39 -56 88t-17 100v14q0 119 74 192q98 96 316 96h46q233 0 329 -98q40 -42 56.5 -97.5t16.5 -123.5v-23h-534q9 -43 38.5 -63t87.5 -20q49 0 76 16q12 7 16 12l6 9h308zM379 407.5
q-26 -18.5 -34 -58.5h223q-2 37 -25 55q-29 22 -86 22q-52 0 -78 -18.5zM601 763v-157h-292v157h292z" />
    <glyph glyph-name="Eogonek" unicode="&#x118;" horiz-adv-x="927" 
d="M80 744h778v-190h-472v-80h457v-195h-457v-87h479v-192h-785v744zM570 -188q-65 0 -95 17.5t-30 53.5v3q0 41 43 65q44 25 162 49h119q-26 -14 -51 -29q-20 -14 -20 -27q0 -21 38 -21h33v-111h-199z" />
    <glyph glyph-name="eogonek" unicode="&#x119;" horiz-adv-x="915" 
d="M734 -188h-201q-65 0 -96 17t-31 53v3q0 35 33 57q33 23 121 45q-46 -2 -75 -2h-49q-226 0 -324 100q-39 39 -56 88t-17 100v14q0 119 74 192q98 96 316 96h46q233 0 329 -98q40 -42 56.5 -97.5t16.5 -123.5v-23h-534q9 -43 38.5 -63t87.5 -20q49 0 76 16q12 7 16 12l6 9
h308q-5 -50 -31 -89q-29 -41 -94 -82q-58 -35 -69 -43q-20 -14 -20 -27q0 -22 40 -22h33v-112zM379 407.5q-26 -18.5 -34 -58.5h223q-2 37 -25 55q-29 22 -86 22q-52 0 -78 -18.5z" />
    <glyph glyph-name="Ecaron" unicode="&#x11a;" horiz-adv-x="927" 
d="M80 744h778v-190h-472v-80h457v-195h-457v-87h479v-192h-785v744zM303 794l-149 161h259l59 -67l59 67h254l-145 -161h-337z" />
    <glyph glyph-name="ecaron" unicode="&#x11b;" horiz-adv-x="915" 
d="M875 187q-6 -81 -72 -130q-98 -72 -318 -72h-49q-226 0 -324 100q-39 39 -56 88t-17 100v14q0 119 74 192q98 96 316 96h46q233 0 329 -98q40 -42 56.5 -97.5t16.5 -123.5v-23h-534q9 -43 38.5 -63t87.5 -20q49 0 76 16q12 7 16 12l6 9h308zM379 407.5
q-26 -18.5 -34 -58.5h223q-2 37 -25 55q-29 22 -86 22q-52 0 -78 -18.5zM280 611l-142 164h259l56 -67l55 67h256l-140 -164h-344z" />
    <glyph glyph-name="Gcircumflex" unicode="&#x11c;" horiz-adv-x="1151" 
d="M494 -11q-238 0 -354 125q-48 52 -70.5 118t-22.5 136v16q0 94 40 171q48 91 152 143q121 59 310 59h35q194 0 316 -50q95 -40 140 -113q33 -54 33 -116v-6h-321q-11 26 -39 41q-49 27 -146 27q-114 0 -164 -50q-40 -40 -40 -111v-9q0 -69 40 -112q51 -54 160 -54
q100 0 154 29q35 17 42 46h-220v143h543v-422h-205q-6 23 -17 47q-13 26 -25 44q-36 -36 -98 -62q-95 -40 -225 -40h-18zM736 955l149 -163h-259l-59 68l-59 -68h-254l145 163h337z" />
    <glyph glyph-name="gcircumflex" unicode="&#x11d;" horiz-adv-x="935" 
d="M458 -204q-162 0 -254 34q-74 26 -107 75q-22 32 -22 81v2h326q2 -4 5 -7q10 -10 37 -14q15 -3 38 -3h6q42 0 65 24.5t23 66.5v34q-17 -21 -63 -42q-58 -28 -144 -28h-13q-165 0 -246 81q-35 35 -52 83t-17 102v18q0 54 16.5 103t51.5 85q79 82 238 82h11q83 0 152 -25
q22 -8 35.5 -16.5t30.5 -20.5v49h292v-496q0 -128 -82 -193q-94 -75 -301 -75h-26zM458 398q-59 0 -87 -33q-25 -29 -25 -70v-1q0 -19 6.5 -38t18.5 -33q29 -34 87 -34h6q59 0 88 34q24 28 24 68v5q0 16 -6 34t-18 33q-30 35 -88 35h-6zM625 775l142 -166h-259l-56 68
l-55 -68h-256l140 166h344z" />
    <glyph glyph-name="Gbreve" unicode="&#x11e;" horiz-adv-x="1151" 
d="M494 -11q-238 0 -354 125q-48 52 -70.5 118t-22.5 136v16q0 94 40 171q48 91 152 143q121 59 310 59h35q194 0 316 -50q95 -40 140 -113q33 -54 33 -116v-6h-321q-11 26 -39 41q-49 27 -146 27q-114 0 -164 -50q-40 -40 -40 -111v-9q0 -69 40 -112q51 -54 160 -54
q100 0 154 29q35 17 42 46h-220v143h543v-422h-205q-6 23 -17 47q-13 26 -25 44q-36 -36 -98 -62q-95 -40 -225 -40h-18zM357 859q-40 47 -40 122h187q0 -22 12 -37q16 -21 50 -21h2q33 0 49 21q12 17 12 37h184q0 -31 -10.5 -63t-34.5 -59q-63 -70 -195 -70h-16
q-142 0 -200 70z" />
    <glyph glyph-name="gbreve" unicode="&#x11f;" horiz-adv-x="935" 
d="M458 -204q-162 0 -254 34q-74 26 -107 75q-22 32 -22 81v2h326q2 -4 5 -7q10 -10 37 -14q15 -3 38 -3h6q42 0 65 24.5t23 66.5v34q-17 -21 -63 -42q-58 -28 -144 -28h-13q-165 0 -246 81q-35 35 -52 83t-17 102v18q0 54 16.5 103t51.5 85q79 82 238 82h11q83 0 152 -25
q22 -8 35.5 -16.5t30.5 -20.5v49h292v-496q0 -128 -82 -193q-94 -75 -301 -75h-26zM458 398q-59 0 -87 -33q-25 -29 -25 -70v-1q0 -19 6.5 -38t18.5 -33q29 -34 87 -34h6q59 0 88 34q24 28 24 68v5q0 16 -6 34t-18 33q-30 35 -88 35h-6zM262 678q-23 28 -33.5 60.5
t-10.5 63.5h186q0 -22 10 -37q15 -24 49 -24h2q34 0 48 23q11 17 11 38h186q0 -73 -43 -124q-60 -71 -196 -71h-14q-135 0 -195 71z" />
    <glyph glyph-name="Gdotaccent" unicode="&#x120;" horiz-adv-x="1151" 
d="M494 -11q-238 0 -354 125q-48 52 -70.5 118t-22.5 136v16q0 94 40 171q48 91 152 143q121 59 310 59h35q194 0 316 -50q95 -40 140 -113q33 -54 33 -116v-6h-321q-11 26 -39 41q-49 27 -146 27q-114 0 -164 -50q-40 -40 -40 -111v-9q0 -69 40 -112q51 -54 160 -54
q100 0 154 29q35 17 42 46h-220v143h543v-422h-205q-6 23 -17 47q-13 26 -25 44q-36 -36 -98 -62q-95 -40 -225 -40h-18zM714 951v-157h-292v157h292z" />
    <glyph glyph-name="gdotaccent" unicode="&#x121;" horiz-adv-x="935" 
d="M458 -204q-162 0 -254 34q-74 26 -107 75q-22 32 -22 81v2h326q2 -4 5 -7q10 -10 37 -14q15 -3 38 -3h6q42 0 65 24.5t23 66.5v34q-17 -21 -63 -42q-58 -28 -144 -28h-13q-165 0 -246 81q-35 35 -52 83t-17 102v18q0 54 16.5 103t51.5 85q79 82 238 82h11q83 0 152 -25
q22 -8 35.5 -16.5t30.5 -20.5v49h292v-496q0 -128 -82 -193q-94 -75 -301 -75h-26zM458 398q-59 0 -87 -33q-25 -29 -25 -70v-1q0 -19 6.5 -38t18.5 -33q29 -34 87 -34h6q59 0 88 34q24 28 24 68v5q0 16 -6 34t-18 33q-30 35 -88 35h-6zM596 763v-157h-292v157h292z" />
    <glyph glyph-name="uni0122" unicode="&#x122;" horiz-adv-x="1151" 
d="M494 -11q-238 0 -354 125q-48 52 -70.5 118t-22.5 136v16q0 94 40 171q48 91 152 143q121 59 310 59h35q194 0 316 -50q95 -40 140 -113q33 -54 33 -116v-6h-321q-11 26 -39 41q-49 27 -146 27q-114 0 -164 -50q-40 -40 -40 -111v-9q0 -69 40 -112q51 -54 160 -54
q100 0 154 29q35 17 42 46h-220v143h543v-422h-205q-6 23 -17 47q-13 26 -25 44q-36 -36 -98 -62q-95 -40 -225 -40h-18zM491 -298q13 21 23.5 44.5t12.5 40.5h-112v167h305v-116q0 -35 -17.5 -70.5t-43.5 -65.5h-168z" />
    <glyph glyph-name="uni0123" unicode="&#x123;" horiz-adv-x="935" 
d="M458 -204q-162 0 -254 34q-74 26 -107 75q-22 32 -22 81v2h326q2 -4 5 -7q10 -10 37 -14q15 -3 38 -3h6q42 0 65 24.5t23 66.5v34q-17 -21 -63 -42q-58 -28 -144 -28h-13q-165 0 -246 81q-35 35 -52 83t-17 102v18q0 54 16.5 103t51.5 85q79 82 238 82h11q83 0 152 -25
q22 -8 35.5 -16.5t30.5 -20.5v49h292v-496q0 -128 -82 -193q-94 -75 -301 -75h-26zM458 398q-59 0 -87 -33q-25 -29 -25 -70v-1q0 -19 6.5 -38t18.5 -33q29 -34 87 -34h6q59 0 88 34q24 28 24 68v5q0 16 -6 34t-18 33q-30 35 -88 35h-6zM520 862q-30 -50 -34 -85h109v-165
h-300v116q0 35 17.5 70.5t42.5 63.5h165z" />
    <glyph glyph-name="Hcircumflex" unicode="&#x124;" horiz-adv-x="1125" 
d="M80 0v744h305v-254h356v254h304v-744h-304v272h-356v-272h-305zM731 955l149 -163h-259l-59 68l-59 -68h-254l145 163h337z" />
    <glyph glyph-name="hcircumflex" unicode="&#x125;" horiz-adv-x="919" 
d="M68 757h292v-281q39 41 82 64q70 36 161 36h10q120 0 184 -66q56 -57 56 -149v-361h-293v274q0 94 -99 94q-50 0 -75.5 -28t-25.5 -77v-263h-292v757zM579 972l142 -166h-259l-56 68l-55 -68h-256l140 166h344z" />
    <glyph glyph-name="Itilde" unicode="&#x128;" horiz-adv-x="465" 
d="M385 744v-744h-305v744h305zM144 791h-151v96q0 47 24 77q28 33 82 33h3q29 0 64 -9q26 -7 64 -22q4 -1 8.5 -3t10.5 -4q19 -8 37 -13q9 -4 19 -4q16 0 16 21v38h151v-96q0 -48 -24 -76q-28 -34 -82 -34h-3q-26 0 -64 10q-26 7 -83 28l-36 14q-11 3 -20 3q-16 0 -16 -21
v-38z" />
    <glyph glyph-name="itilde" unicode="&#x129;" horiz-adv-x="428" 
d="M439 718q0 -47 -23 -76q-26 -34 -75 -34h-3q-30 0 -60 9q-32 10 -77 30l-35 15q-12 5 -19 5q-16 0 -16 -21v-42h-143v100q0 47 23 77q26 33 75 33h4q32 0 59 -8q26 -8 77 -31q20 -10 35 -15q13 -5 20 -5q15 0 15 21v42h143v-100zM360 560v-560h-292v560h292z" />
    <glyph glyph-name="Imacron" unicode="&#x12a;" horiz-adv-x="465" 
d="M385 744v-744h-305v744h305zM6 803v141h453v-141h-453z" />
    <glyph glyph-name="imacron" unicode="&#x12b;" horiz-adv-x="428" 
d="M8 616v141h412v-141h-412zM360 560v-560h-292v560h292z" />
    <glyph glyph-name="Ibreve" unicode="&#x12c;" horiz-adv-x="465" 
d="M385 744v-744h-305v744h305zM22 859q-40 47 -40 122h187q0 -22 12 -37q16 -21 50 -21h2q33 0 49 21q12 17 12 37h184q0 -31 -10.5 -63t-34.5 -59q-63 -70 -195 -70h-16q-142 0 -200 70z" />
    <glyph glyph-name="ibreve" unicode="&#x12d;" horiz-adv-x="428" 
d="M204 607q-128 0 -186 74q-22 27 -31 59.5t-9 61.5h178q0 -21 8 -36q13 -25 46 -25h2q30 0 45 25q9 17 9 36h178q0 -29 -9 -61.5t-31 -59.5q-58 -74 -186 -74h-14zM360 560v-560h-292v560h292z" />
    <glyph glyph-name="Iogonek" unicode="&#x12e;" horiz-adv-x="465" 
d="M385 744v-744h-305v744h305zM186 -188q-65 0 -95 17.5t-30 53.5v3q0 41 43 65q44 25 162 49h119q-26 -14 -51 -29q-20 -14 -20 -27q0 -21 38 -21h33v-111h-199z" />
    <glyph glyph-name="iogonek" unicode="&#x12f;" horiz-adv-x="428" 
d="M360 763v-157h-292v157h292zM360 560v-560h-292v560h292zM161 -188q-65 0 -95 17.5t-30 53.5v3q0 41 43 65q44 25 162 49h119q-26 -14 -51 -29q-20 -14 -20 -27q0 -21 38 -21h33v-111h-199z" />
    <glyph glyph-name="Idotaccent" unicode="&#x130;" horiz-adv-x="465" 
d="M385 744v-744h-305v744h305zM379 951v-157h-292v157h292z" />
    <glyph glyph-name="dotlessi" unicode="&#x131;" horiz-adv-x="428" 
d="M360 560v-560h-292v560h292z" />
    <glyph glyph-name="uni0136" unicode="&#x136;" horiz-adv-x="1022" 
d="M384 0h-304v744h304v-277l282 277h348l-345 -334l374 -410h-380l-279 320v-320zM447 -298q13 21 23.5 44.5t12.5 40.5h-112v167h305v-116q0 -35 -17.5 -70.5t-43.5 -65.5h-168z" />
    <glyph glyph-name="uni0137" unicode="&#x137;" horiz-adv-x="832" 
d="M360 0h-292v757h292v-397l143 200h314l-195 -250l220 -310h-324l-158 234v-234zM363 -298q13 21 23.5 44.5t12.5 40.5h-112v167h305v-116q0 -35 -17.5 -70.5t-43.5 -65.5h-168z" />
    <glyph glyph-name="Lacute" unicode="&#x139;" horiz-adv-x="874" 
d="M80 744h305v-512h440v-232h-745v744zM371 794h-278l100 161h315z" />
    <glyph glyph-name="lacute" unicode="&#x13a;" horiz-adv-x="428" 
d="M360 757v-757h-292v757h292zM77 806l104 164h314l-142 -164h-276z" />
    <glyph glyph-name="uni013B" unicode="&#x13b;" horiz-adv-x="874" 
d="M80 744h305v-512h440v-232h-745v744zM376 -298q13 21 23.5 44.5t12.5 40.5h-112v167h305v-116q0 -35 -17.5 -70.5t-43.5 -65.5h-168z" />
    <glyph glyph-name="uni013C" unicode="&#x13c;" horiz-adv-x="428" 
d="M360 757v-757h-292v757h292zM139 -298q13 21 23.5 44.5t12.5 40.5h-112v167h305v-116q0 -35 -17.5 -70.5t-43.5 -65.5h-168z" />
    <glyph glyph-name="Nacute" unicode="&#x143;" horiz-adv-x="1150" 
d="M779 0l-401 400v-400h-298v744h310l382 -381v381h298v-744h-291zM714 794h-278l100 161h315z" />
    <glyph glyph-name="nacute" unicode="&#x144;" horiz-adv-x="919" 
d="M68 560h290v-87q34 40 84 66q69 37 161 37h10q120 0 184 -66q56 -57 56 -149v-361h-293v274q0 94 -99 94q-50 0 -75.5 -28t-25.5 -77v-263h-292v560zM323 611l104 164h314l-142 -164h-276z" />
    <glyph glyph-name="uni0145" unicode="&#x145;" horiz-adv-x="1150" 
d="M779 0l-401 400v-400h-298v744h310l382 -381v381h298v-744h-291zM499 -298q13 21 23.5 44.5t12.5 40.5h-112v167h305v-116q0 -35 -17.5 -70.5t-43.5 -65.5h-168z" />
    <glyph glyph-name="uni0146" unicode="&#x146;" horiz-adv-x="919" 
d="M68 560h290v-87q34 40 84 66q69 37 161 37h10q120 0 184 -66q56 -57 56 -149v-361h-293v274q0 94 -99 94q-50 0 -75.5 -28t-25.5 -77v-263h-292v560zM385 -298q13 21 23.5 44.5t12.5 40.5h-112v167h305v-116q0 -35 -17.5 -70.5t-43.5 -65.5h-168z" />
    <glyph glyph-name="Ncaron" unicode="&#x147;" horiz-adv-x="1150" 
d="M779 0l-401 400v-400h-298v744h310l382 -381v381h298v-744h-291zM409 794l-149 161h259l59 -67l59 67h254l-145 -161h-337z" />
    <glyph glyph-name="ncaron" unicode="&#x148;" horiz-adv-x="919" 
d="M68 560h290v-87q34 40 84 66q69 37 161 37h10q120 0 184 -66q56 -57 56 -149v-361h-293v274q0 94 -99 94q-50 0 -75.5 -28t-25.5 -77v-263h-292v560zM287 611l-142 164h259l56 -67l55 67h256l-140 -164h-344z" />
    <glyph glyph-name="Omacron" unicode="&#x14c;" horiz-adv-x="1133" 
d="M589 757q199 0 318 -62q102 -53 145 -144q34 -72 34 -162v-30q0 -92 -34 -161q-45 -94 -145 -147q-120 -64 -318 -64h-46q-195 0 -316 64q-102 54 -145 147q-35 74 -35 161v30q0 91 35 162q45 92 145 144q119 62 316 62h46zM766 381q0 61 -34 100q-49 56 -166 56
q-118 0 -167 -56q-33 -38 -33 -100v-10q0 -63 35 -103q50 -57 166 -57q115 0 165 57q34 39 34 103v10zM340 803v141h453v-141h-453z" />
    <glyph glyph-name="omacron" unicode="&#x14d;" horiz-adv-x="919" 
d="M442 -15q-169 0 -268 53q-79 41 -112 116q-23 52 -23 117v14q0 66 23 119q33 75 112 118q98 53 267 53h36q175 0 274 -53q80 -45 109 -118q20 -52 20 -118v-16q0 -67 -20 -116q-30 -75 -110 -116q-99 -53 -274 -53h-34zM462 165q59 0 89 42q23 31 23 75q0 46 -23 77
q-28 38 -89 38h-6q-62 0 -88 -38q-23 -31 -23 -77t22 -76q27 -41 89 -41h6zM233 616v141h453v-141h-453z" />
    <glyph glyph-name="Obreve" unicode="&#x14e;" horiz-adv-x="1133" 
d="M589 757q199 0 318 -62q102 -53 145 -144q34 -72 34 -162v-30q0 -92 -34 -161q-45 -94 -145 -147q-120 -64 -318 -64h-46q-195 0 -316 64q-102 54 -145 147q-35 74 -35 161v30q0 91 35 162q45 92 145 144q119 62 316 62h46zM766 381q0 61 -34 100q-49 56 -166 56
q-118 0 -167 -56q-33 -38 -33 -100v-10q0 -63 35 -103q50 -57 166 -57q115 0 165 57q34 39 34 103v10zM356 859q-40 47 -40 122h187q0 -22 12 -37q16 -21 50 -21h2q33 0 49 21q12 17 12 37h184q0 -31 -10.5 -63t-34.5 -59q-63 -70 -195 -70h-16q-142 0 -200 70z" />
    <glyph glyph-name="obreve" unicode="&#x14f;" horiz-adv-x="919" 
d="M442 -15q-169 0 -268 53q-79 41 -112 116q-23 52 -23 117v14q0 66 23 119q33 75 112 118q98 53 267 53h36q175 0 274 -53q80 -45 109 -118q20 -52 20 -118v-16q0 -67 -20 -116q-30 -75 -110 -116q-99 -53 -274 -53h-34zM462 165q59 0 89 42q23 31 23 75q0 46 -23 77
q-28 38 -89 38h-6q-62 0 -88 -38q-23 -31 -23 -77t22 -76q27 -41 89 -41h6zM257 678q-23 28 -33.5 60.5t-10.5 63.5h186q0 -22 10 -37q15 -24 49 -24h2q34 0 48 23q11 17 11 38h186q0 -73 -43 -124q-60 -71 -196 -71h-14q-135 0 -195 71z" />
    <glyph glyph-name="Ohungarumlaut" unicode="&#x150;" horiz-adv-x="1133" 
d="M589 757q199 0 318 -62q102 -53 145 -144q34 -72 34 -162v-30q0 -92 -34 -161q-45 -94 -145 -147q-120 -64 -318 -64h-46q-195 0 -316 64q-102 54 -145 147q-35 74 -35 161v30q0 91 35 162q45 92 145 144q119 62 316 62h46zM766 381q0 61 -34 100q-49 56 -166 56
q-118 0 -167 -56q-33 -38 -33 -100v-10q0 -63 35 -103q50 -57 166 -57q115 0 165 57q34 39 34 103v10zM291 794l82 161h258l-89 -161h-251zM596 794l92 161h258l-96 -161h-254z" />
    <glyph glyph-name="ohungarumlaut" unicode="&#x151;" horiz-adv-x="919" 
d="M442 -15q-169 0 -268 53q-79 41 -112 116q-23 52 -23 117v14q0 66 23 119q33 75 112 118q98 53 267 53h36q175 0 274 -53q80 -45 109 -118q20 -52 20 -118v-16q0 -67 -20 -116q-30 -75 -110 -116q-99 -53 -274 -53h-34zM462 165q59 0 89 42q23 31 23 75q0 46 -23 77
q-28 38 -89 38h-6q-62 0 -88 -38q-23 -31 -23 -77t22 -76q27 -41 89 -41h6zM180 611l88 164h260l-94 -164h-254zM486 611l96 164h261l-102 -164h-255z" />
    <glyph glyph-name="Racute" unicode="&#x154;" horiz-adv-x="1110" 
d="M998 315q54 -44 54 -125v-137q0 -20 2.5 -30.5t8.5 -17.5v-5h-314q-3 6 -4 13q-2 14 -2 30v63q0 36 -7 58.5t-23 35.5q-15 12 -41.5 16.5t-68.5 4.5h-218v-221h-305v744h656q182 0 255 -63q31 -26 42.5 -62t11.5 -81v-5q0 -76 -56 -124q-43 -36 -116 -51q81 -9 125 -43z
M385 430h269q41 0 61 18q14 13 14 38v1q0 23 -14 36q-18 16 -61 16h-269v-109zM676 794h-278l100 161h315z" />
    <glyph glyph-name="racute" unicode="&#x155;" horiz-adv-x="812" 
d="M68 0v560h290v-91q20 36 62 64q60 40 143 40h10q113 0 164 -75q38 -56 38 -156q0 -65 -4 -90h-286v37q0 40 -14.5 59t-46.5 19q-33 0 -48.5 -19.5t-15.5 -63.5v-284h-292zM283 611l104 164h314l-142 -164h-276z" />
    <glyph glyph-name="uni0156" unicode="&#x156;" horiz-adv-x="1110" 
d="M998 315q54 -44 54 -125v-137q0 -20 2.5 -30.5t8.5 -17.5v-5h-314q-3 6 -4 13q-2 14 -2 30v63q0 36 -7 58.5t-23 35.5q-15 12 -41.5 16.5t-68.5 4.5h-218v-221h-305v744h656q182 0 255 -63q31 -26 42.5 -62t11.5 -81v-5q0 -76 -56 -124q-43 -36 -116 -51q81 -9 125 -43z
M385 430h269q41 0 61 18q14 13 14 38v1q0 23 -14 36q-18 16 -61 16h-269v-109zM487 -298q13 21 23.5 44.5t12.5 40.5h-112v167h305v-116q0 -35 -17.5 -70.5t-43.5 -65.5h-168z" />
    <glyph glyph-name="uni0157" unicode="&#x157;" horiz-adv-x="812" 
d="M68 0v560h290v-91q20 36 62 64q60 40 143 40h10q113 0 164 -75q38 -56 38 -156q0 -65 -4 -90h-286v37q0 40 -14.5 59t-46.5 19q-33 0 -48.5 -19.5t-15.5 -63.5v-284h-292zM140 -298q13 21 23.5 44.5t12.5 40.5h-112v167h305v-116q0 -35 -17.5 -70.5t-43.5 -65.5h-168z
" />
    <glyph glyph-name="Rcaron" unicode="&#x158;" horiz-adv-x="1110" 
d="M998 315q54 -44 54 -125v-137q0 -20 2.5 -30.5t8.5 -17.5v-5h-314q-3 6 -4 13q-2 14 -2 30v63q0 36 -7 58.5t-23 35.5q-15 12 -41.5 16.5t-68.5 4.5h-218v-221h-305v744h656q182 0 255 -63q31 -26 42.5 -62t11.5 -81v-5q0 -76 -56 -124q-43 -36 -116 -51q81 -9 125 -43z
M385 430h269q41 0 61 18q14 13 14 38v1q0 23 -14 36q-18 16 -61 16h-269v-109zM371 794l-149 161h259l59 -67l59 67h254l-145 -161h-337z" />
    <glyph glyph-name="rcaron" unicode="&#x159;" horiz-adv-x="812" 
d="M68 0v560h290v-91q20 36 62 64q60 40 143 40h10q113 0 164 -75q38 -56 38 -156q0 -65 -4 -90h-286v37q0 40 -14.5 59t-46.5 19q-33 0 -48.5 -19.5t-15.5 -63.5v-284h-292zM250 611l-142 164h259l56 -67l55 67h256l-140 -164h-344z" />
    <glyph glyph-name="Sacute" unicode="&#x15a;" horiz-adv-x="1023" 
d="M505 -12q-196 0 -307 44q-95 38 -129 101q-26 48 -26 114v3h328q2 -31 23 -48q34 -29 117 -29h6q84 0 117 18q24 13 24 38q0 13 -4.5 22.5t-17.5 15.5q-33 16 -112 17l-107 2q-204 4 -290 73q-72 57 -72 160v8q0 54 20.5 95t67.5 70q102 63 338 63h47q254 0 359 -77
q78 -57 78 -165v-2h-321q-7 29 -27 43q-34 22 -110 22h-7q-79 0 -109 -14q-13 -6 -18 -15t-5 -21q0 -24 24 -35q27 -14 103 -15l110 -2q112 -2 184.5 -18t114.5 -46q39 -28 55.5 -68t16.5 -95v-12q0 -54 -17 -96.5t-62 -74.5q-106 -76 -369 -76h-23zM643 794h-278l100 161
h315z" />
    <glyph glyph-name="sacute" unicode="&#x15b;" horiz-adv-x="842" 
d="M395 -13q-157 0 -247 35q-72 28 -100 79q-18 33 -18 84v1h312q0 -16 15 -26q21 -15 61 -15h2q46 0 62 10q15 9 15 24q0 16 -17 24q-17 7 -69 10l-95 7q-158 7 -223 65q-27 24 -37.5 53t-10.5 65v6q0 77 73 116q86 46 287 46h21q213 0 301 -55q68 -42 68 -127v-1h-302
q-2 16 -15 25q-21 14 -61 14h-6q-43 0 -57 -8q-15 -7 -15 -25q0 -15 18 -23q19 -9 65 -10l98 -4q165 -7 229 -54q29 -21 41 -51t12 -69v-11q0 -39 -13.5 -70.5t-49.5 -55.5q-87 -59 -314 -59h-30zM278 611l104 164h314l-142 -164h-276z" />
    <glyph glyph-name="Scircumflex" unicode="&#x15c;" horiz-adv-x="1023" 
d="M505 -12q-196 0 -307 44q-95 38 -129 101q-26 48 -26 114v3h328q2 -31 23 -48q34 -29 117 -29h6q84 0 117 18q24 13 24 38q0 13 -4.5 22.5t-17.5 15.5q-33 16 -112 17l-107 2q-204 4 -290 73q-72 57 -72 160v8q0 54 20.5 95t67.5 70q102 63 338 63h47q254 0 359 -77
q78 -57 78 -165v-2h-321q-7 29 -27 43q-34 22 -110 22h-7q-79 0 -109 -14q-13 -6 -18 -15t-5 -21q0 -24 24 -35q27 -14 103 -15l110 -2q112 -2 184.5 -18t114.5 -46q39 -28 55.5 -68t16.5 -95v-12q0 -54 -17 -96.5t-62 -74.5q-106 -76 -369 -76h-23zM673 955l149 -163h-259
l-59 68l-59 -68h-254l145 163h337z" />
    <glyph glyph-name="scircumflex" unicode="&#x15d;" horiz-adv-x="842" 
d="M395 -13q-157 0 -247 35q-72 28 -100 79q-18 33 -18 84v1h312q0 -16 15 -26q21 -15 61 -15h2q46 0 62 10q15 9 15 24q0 16 -17 24q-17 7 -69 10l-95 7q-158 7 -223 65q-27 24 -37.5 53t-10.5 65v6q0 77 73 116q86 46 287 46h21q213 0 301 -55q68 -42 68 -127v-1h-302
q-2 16 -15 25q-21 14 -61 14h-6q-43 0 -57 -8q-15 -7 -15 -25q0 -15 18 -23q19 -9 65 -10l98 -4q165 -7 229 -54q29 -21 41 -51t12 -69v-11q0 -39 -13.5 -70.5t-49.5 -55.5q-87 -59 -314 -59h-30zM589 775l142 -166h-259l-56 68l-55 -68h-256l140 166h344z" />
    <glyph glyph-name="Scedilla" unicode="&#x15e;" horiz-adv-x="1023" 
d="M364 -324v121h142q23 0 31.5 6.5t8.5 19.5q0 12 -8.5 18.5t-31.5 6.5h-105v144q-151 11 -237 55q-71 36 -100 97q-21 43 -21 103v3h328q2 -31 23 -48q34 -29 117 -29h6q84 0 117 18q24 13 24 38q0 13 -4.5 22.5t-17.5 15.5q-33 16 -112 17l-107 2q-204 4 -290 73
q-72 57 -72 160v8q0 54 20.5 95t67.5 70q102 63 338 63h47q254 0 359 -77q78 -57 78 -165v-2h-321q-7 29 -27 43q-34 22 -110 22h-7q-79 0 -109 -14q-13 -6 -18 -15t-5 -21q0 -24 24 -35q27 -14 103 -15l110 -2q112 -2 184.5 -18t114.5 -46q39 -28 55.5 -68t16.5 -95v-12
q0 -53 -16 -95t-58 -73q-100 -75 -347 -79v-43h2q115 0 160 -39q19 -17 26.5 -39t7.5 -52v-4q0 -62 -39 -92q-55 -43 -191 -43h-157z" />
    <glyph glyph-name="scedilla" unicode="&#x15f;" horiz-adv-x="842" 
d="M260 -324v121h142q23 0 31.5 6.5t8.5 19.5q0 12 -8.5 18.5t-31.5 6.5h-105v143q-165 15 -227 80q-24 25 -32 53.5t-8 60.5v1h312q0 -16 15 -26q21 -15 61 -15h2q46 0 62 10q15 9 15 24q0 16 -17 24q-17 7 -69 10l-95 7q-158 7 -223 65q-27 24 -37.5 53t-10.5 65v6
q0 77 73 116q86 46 287 46h21q213 0 301 -55q68 -42 68 -127v-1h-302q-2 16 -15 25q-21 14 -61 14h-6q-43 0 -57 -8q-15 -7 -15 -25q0 -15 18 -23q19 -9 65 -10l98 -4q165 -7 229 -54q29 -21 41 -51t12 -69v-11q0 -38 -13 -69t-46 -55q-80 -57 -292 -61v-42h2q115 0 160 -39
q19 -17 26.5 -39t7.5 -52v-4q0 -62 -39 -92q-55 -43 -191 -43h-157z" />
    <glyph glyph-name="Scaron" unicode="&#x160;" horiz-adv-x="1023" 
d="M505 -12q-196 0 -307 44q-95 38 -129 101q-26 48 -26 114v3h328q2 -31 23 -48q34 -29 117 -29h6q84 0 117 18q24 13 24 38q0 13 -4.5 22.5t-17.5 15.5q-33 16 -112 17l-107 2q-204 4 -290 73q-72 57 -72 160v8q0 54 20.5 95t67.5 70q102 63 338 63h47q254 0 359 -77
q78 -57 78 -165v-2h-321q-7 29 -27 43q-34 22 -110 22h-7q-79 0 -109 -14q-13 -6 -18 -15t-5 -21q0 -24 24 -35q27 -14 103 -15l110 -2q112 -2 184.5 -18t114.5 -46q39 -28 55.5 -68t16.5 -95v-12q0 -54 -17 -96.5t-62 -74.5q-106 -76 -369 -76h-23zM338 794l-149 161h259
l59 -67l59 67h254l-145 -161h-337z" />
    <glyph glyph-name="scaron" unicode="&#x161;" horiz-adv-x="842" 
d="M395 -13q-157 0 -247 35q-72 28 -100 79q-18 33 -18 84v1h312q0 -16 15 -26q21 -15 61 -15h2q46 0 62 10q15 9 15 24q0 16 -17 24q-17 7 -69 10l-95 7q-158 7 -223 65q-27 24 -37.5 53t-10.5 65v6q0 77 73 116q86 46 287 46h21q213 0 301 -55q68 -42 68 -127v-1h-302
q-2 16 -15 25q-21 14 -61 14h-6q-43 0 -57 -8q-15 -7 -15 -25q0 -15 18 -23q19 -9 65 -10l98 -4q165 -7 229 -54q29 -21 41 -51t12 -69v-11q0 -39 -13.5 -70.5t-49.5 -55.5q-87 -59 -314 -59h-30zM242 611l-142 164h259l56 -67l55 67h256l-140 -164h-344z" />
    <glyph glyph-name="uni0162" unicode="&#x162;" horiz-adv-x="1004" 
d="M350 0v519h-304v225h912v-225h-304v-519h-304zM426 -298q13 21 23.5 44.5t12.5 40.5h-112v167h305v-116q0 -35 -17.5 -70.5t-43.5 -65.5h-168z" />
    <glyph glyph-name="uni0163" unicode="&#x163;" horiz-adv-x="588" 
d="M540 0h-238q-70 0 -111 37q-46 39 -46 110v231h-109v182h109v167h287v-167h108v-182h-108v-127q0 -31 10.5 -42.5t42.5 -11.5h55v-197zM282 -298q13 21 23.5 44.5t12.5 40.5h-112v167h305v-116q0 -35 -17.5 -70.5t-43.5 -65.5h-168z" />
    <glyph glyph-name="Utilde" unicode="&#x168;" horiz-adv-x="1139" 
d="M230 64q-95 58 -130 166q-23 70 -23 172v342h304v-342q0 -76 36 -117q45 -53 153 -53h4q104 0 150 53q34 40 34 117v342h304v-342q0 -99 -25 -172q-37 -108 -130 -166q-117 -75 -319 -75h-31q-209 0 -327 75zM482 791h-151v96q0 47 24 77q28 33 82 33h3q29 0 64 -9
q26 -7 64 -22q4 -1 8.5 -3t10.5 -4q19 -8 37 -13q9 -4 19 -4q16 0 16 21v38h151v-96q0 -48 -24 -76q-28 -34 -82 -34h-3q-26 0 -64 10q-26 7 -83 28l-36 14q-11 3 -20 3q-16 0 -16 -21v-38z" />
    <glyph glyph-name="utilde" unicode="&#x169;" horiz-adv-x="914" 
d="M846 0h-290v87q-34 -40 -82 -65q-72 -38 -161 -38h-10q-118 0 -181 66q-28 29 -42 67.5t-14 81.5v361h293v-274q0 -42 21 -66q25 -28 74 -28q50 0 75 28t25 77v263h292v-560zM694 718q0 -46 -24 -76q-28 -34 -79 -34h-4q-31 0 -63 9q-29 8 -81 30q-23 11 -36 15
q-15 5 -21 5q-16 0 -16 -21v-42h-151v100q0 46 25 77q26 33 78 33h4q35 0 63 -8q21 -6 81 -31q23 -11 36 -15q15 -5 21 -5q16 0 16 21v42h151v-100z" />
    <glyph glyph-name="Umacron" unicode="&#x16a;" horiz-adv-x="1139" 
d="M230 64q-95 58 -130 166q-23 70 -23 172v342h304v-342q0 -76 36 -117q45 -53 153 -53h4q104 0 150 53q34 40 34 117v342h304v-342q0 -99 -25 -172q-37 -108 -130 -166q-117 -75 -319 -75h-31q-209 0 -327 75zM344 803v141h453v-141h-453z" />
    <glyph glyph-name="umacron" unicode="&#x16b;" horiz-adv-x="914" 
d="M846 0h-290v87q-34 -40 -82 -65q-72 -38 -161 -38h-10q-118 0 -181 66q-28 29 -42 67.5t-14 81.5v361h293v-274q0 -42 21 -66q25 -28 74 -28q50 0 75 28t25 77v263h292v-560zM230 616v141h453v-141h-453z" />
    <glyph glyph-name="Ubreve" unicode="&#x16c;" horiz-adv-x="1139" 
d="M230 64q-95 58 -130 166q-23 70 -23 172v342h304v-342q0 -76 36 -117q45 -53 153 -53h4q104 0 150 53q34 40 34 117v342h304v-342q0 -99 -25 -172q-37 -108 -130 -166q-117 -75 -319 -75h-31q-209 0 -327 75zM360 859q-40 47 -40 122h187q0 -22 12 -37q16 -21 50 -21h2
q33 0 49 21q12 17 12 37h184q0 -31 -10.5 -63t-34.5 -59q-63 -70 -195 -70h-16q-142 0 -200 70z" />
    <glyph glyph-name="ubreve" unicode="&#x16d;" horiz-adv-x="914" 
d="M846 0h-290v87q-34 -40 -82 -65q-72 -38 -161 -38h-10q-118 0 -181 66q-28 29 -42 67.5t-14 81.5v361h293v-274q0 -42 21 -66q25 -28 74 -28q50 0 75 28t25 77v263h292v-560zM254 678q-23 28 -33.5 60.5t-10.5 63.5h186q0 -22 10 -37q15 -24 49 -24h2q34 0 48 23
q11 17 11 38h186q0 -73 -43 -124q-60 -71 -196 -71h-14q-135 0 -195 71z" />
    <glyph glyph-name="Uring" unicode="&#x16e;" horiz-adv-x="1139" 
d="M230 64q-95 58 -130 166q-23 70 -23 172v342h304v-342q0 -76 36 -117q45 -53 153 -53h4q104 0 150 53q34 40 34 117v342h304v-342q0 -99 -25 -172q-37 -108 -130 -166q-117 -75 -319 -75h-31q-209 0 -327 75zM408 1002q51 44 162 44q113 0 164 -44q38 -33 38 -93
q0 -61 -38 -95q-49 -46 -164 -46q-114 0 -163 46q-39 35 -39 95q0 58 40 93zM619 944.5q-15 14.5 -49 14.5q-33 0 -48.5 -14.5t-15.5 -35.5q0 -23 15.5 -38.5t48.5 -15.5q34 0 49 15t15 39q0 21 -15 35.5z" />
    <glyph glyph-name="uring" unicode="&#x16f;" horiz-adv-x="914" 
d="M846 0h-290v87q-34 -40 -82 -65q-72 -38 -161 -38h-10q-118 0 -181 66q-28 29 -42 67.5t-14 81.5v361h293v-274q0 -42 21 -66q25 -28 74 -28q50 0 75 28t25 77v263h292v-560zM297 834q49 44 159 44q111 0 160 -44q37 -33 37 -93q0 -61 -37 -95q-48 -46 -160 -46t-160 46
q-37 34 -37 95q0 59 38 93zM412 702.5q14 -15.5 44 -15.5q31 0 45 15t14 39q0 21 -14 35.5t-45 14.5q-30 0 -44 -14.5t-14 -35.5q0 -23 14 -38.5z" />
    <glyph glyph-name="Uhungarumlaut" unicode="&#x170;" horiz-adv-x="1139" 
d="M230 64q-95 58 -130 166q-23 70 -23 172v342h304v-342q0 -76 36 -117q45 -53 153 -53h4q104 0 150 53q34 40 34 117v342h304v-342q0 -99 -25 -172q-37 -108 -130 -166q-117 -75 -319 -75h-31q-209 0 -327 75zM291 794l82 161h258l-89 -161h-251zM596 794l92 161h258
l-96 -161h-254z" />
    <glyph glyph-name="uhungarumlaut" unicode="&#x171;" horiz-adv-x="914" 
d="M846 0h-290v87q-34 -40 -82 -65q-72 -38 -161 -38h-10q-118 0 -181 66q-28 29 -42 67.5t-14 81.5v361h293v-274q0 -42 21 -66q25 -28 74 -28q50 0 75 28t25 77v263h292v-560zM177 611l88 164h260l-94 -164h-254zM483 611l96 164h261l-102 -164h-255z" />
    <glyph glyph-name="Uogonek" unicode="&#x172;" horiz-adv-x="1139" 
d="M619 -190q-65 0 -95 17.5t-30 53.5v3q0 36 33 58q36 25 136 50q-35 -3 -75 -3h-31q-209 0 -327 75q-95 58 -130 166q-23 70 -23 172v342h304v-342q0 -76 36 -117q45 -53 153 -53h4q104 0 150 53q34 40 34 117v342h304v-342q0 -118 -36 -200q-49 -109 -169 -176
q-63 -35 -83 -48q-28 -16 -28 -33q0 -12 9 -18t30 -6h33v-111h-199z" />
    <glyph glyph-name="uogonek" unicode="&#x173;" horiz-adv-x="914" 
d="M775 -56q0 -21 38 -21h33v-111h-199q-65 0 -95 17.5t-30 53.5v3q0 41 43 65q44 25 162 49h-171v87q-34 -40 -82 -65q-72 -38 -161 -38h-10q-118 0 -181 66q-28 29 -42 67.5t-14 81.5v361h293v-274q0 -42 21 -66q25 -28 74 -28q50 0 75 28t25 77v263h292v-560
q-26 -14 -51 -29q-20 -14 -20 -27z" />
    <glyph glyph-name="Wcircumflex" unicode="&#x174;" horiz-adv-x="1472" 
d="M604 0h-357l-254 744h328l135 -466l138 466h314l137 -466l136 466h298l-249 -744h-356l-135 433zM920 955l149 -163h-259l-59 68l-59 -68h-254l145 163h337z" />
    <glyph glyph-name="wcircumflex" unicode="&#x175;" horiz-adv-x="1255" 
d="M542 0h-351l-190 560h310l77 -326l97 326h306l96 -325l77 325h290l-179 -560h-358l-91 286zM809 775l142 -166h-259l-56 68l-55 -68h-256l140 166h344z" />
    <glyph glyph-name="Ycircumflex" unicode="&#x176;" horiz-adv-x="1044" 
d="M376 0v262l-399 482h369l195 -247l200 247h326l-387 -482v-262h-304zM712 955l149 -163h-259l-59 68l-59 -68h-254l145 163h337z" />
    <glyph glyph-name="ycircumflex" unicode="&#x177;" horiz-adv-x="831" 
d="M103 -13h132q22 0 22 13q0 7 -6.5 20.5t-8.5 17.5l-247 522h321l120 -344l100 344h300l-244 -600q-31 -76 -82.5 -112t-136.5 -36h-270v175zM600 775l142 -166h-259l-56 68l-55 -68h-256l140 166h344z" />
    <glyph glyph-name="Ydieresis" unicode="&#x178;" horiz-adv-x="1044" 
d="M376 0v262l-399 482h369l195 -247l200 247h326l-387 -482v-262h-304zM518 951v-157h-271v157h271zM839 951v-157h-271v157h271z" />
    <glyph glyph-name="Zacute" unicode="&#x179;" horiz-adv-x="989" 
d="M634 794h-278l100 161h315zM925 0h-861v184l419 335h-414v225h852v-182l-436 -335h440v-227z" />
    <glyph glyph-name="zacute" unicode="&#x17a;" horiz-adv-x="802" 
d="M747 0h-688v172l318 206h-313v182h672v-172l-328 -202h339v-186zM262 611l104 164h314l-142 -164h-276z" />
    <glyph glyph-name="Zdotaccent" unicode="&#x17b;" horiz-adv-x="989" 
d="M925 0h-861v184l419 335h-414v225h852v-182l-436 -335h440v-227zM642 951v-157h-292v157h292z" />
    <glyph glyph-name="zdotaccent" unicode="&#x17c;" horiz-adv-x="802" 
d="M747 0h-688v172l318 206h-313v182h672v-172l-328 -202h339v-186zM547 763v-157h-292v157h292z" />
    <glyph glyph-name="Zcaron" unicode="&#x17d;" horiz-adv-x="989" 
d="M925 0h-861v184l419 335h-414v225h852v-182l-436 -335h440v-227zM329 794l-149 161h259l59 -67l59 67h254l-145 -161h-337z" />
    <glyph glyph-name="zcaron" unicode="&#x17e;" horiz-adv-x="802" 
d="M747 0h-688v172l318 206h-313v182h672v-172l-328 -202h339v-186zM226 611l-142 164h259l56 -67l55 67h256l-140 -164h-344z" />
    <glyph glyph-name="Aringacute" unicode="&#x1fa;" horiz-adv-x="1079" 
d="M769 0l-51 111h-375l-51 -111h-305l353 744h395l357 -744h-323zM633 298l-102 226l-103 -226h205zM375 1018q51 44 162 44q113 0 164 -44q38 -33 38 -93q0 -61 -38 -95q-49 -46 -164 -46q-114 0 -163 46q-39 35 -39 95q0 58 40 93zM586 960.5q-15 14.5 -49 14.5
q-33 0 -48.5 -14.5t-15.5 -35.5q0 -23 15.5 -38.5t48.5 -15.5q34 0 49 15t15 39q0 21 -15 35.5zM676 1090h-278l100 161h315z" />
    <glyph glyph-name="aringacute" unicode="&#x1fb;" horiz-adv-x="867" 
d="M449 21q-68 -33 -156 -33h-18q-116 0 -176.5 48t-60.5 134v5q0 40 14 69.5t44 50.5q61 42 209 49l161 8q21 1 29.5 7.5t8.5 21.5v1q0 18 -15 30q-17 11 -65 11h-7q-50 0 -70 -20q-13 -12 -13 -28h-283v1q0 38 12 71.5t45 60.5q82 67 293 67h35q216 0 299 -64
q33 -26 44.5 -59t11.5 -75v-166q0 -19 16 -19h37v-192h-236q-37 0 -65 23q-22 18 -32 43q-29 -29 -62 -45zM477 166q27 24 27 63v19l-89 -14q-53 -7 -74 -20q-9 -7 -13 -14.5t-4 -19.5v-1q0 -20 17.5 -31t49.5 -11q54 0 86 29zM260 834q49 44 159 44q111 0 160 -44
q37 -33 37 -93q0 -61 -37 -95q-48 -46 -160 -46t-160 46q-37 34 -37 95q0 59 38 93zM375 702.5q14 -15.5 44 -15.5q31 0 45 15t14 39q0 21 -14 35.5t-45 14.5q-30 0 -44 -14.5t-14 -35.5q0 -23 14 -38.5zM281 903l104 164h314l-142 -164h-276z" />
    <glyph glyph-name="uni0218" unicode="&#x218;" horiz-adv-x="1023" 
d="M505 -12q-196 0 -307 44q-95 38 -129 101q-26 48 -26 114v3h328q2 -31 23 -48q34 -29 117 -29h6q84 0 117 18q24 13 24 38q0 13 -4.5 22.5t-17.5 15.5q-33 16 -112 17l-107 2q-204 4 -290 73q-72 57 -72 160v8q0 54 20.5 95t67.5 70q102 63 338 63h47q254 0 359 -77
q78 -57 78 -165v-2h-321q-7 29 -27 43q-34 22 -110 22h-7q-79 0 -109 -14q-13 -6 -18 -15t-5 -21q0 -24 24 -35q27 -14 103 -15l110 -2q112 -2 184.5 -18t114.5 -46q39 -28 55.5 -68t16.5 -95v-12q0 -54 -17 -96.5t-62 -74.5q-106 -76 -369 -76h-23zM435 -298
q13 21 23.5 44.5t12.5 40.5h-112v167h305v-116q0 -35 -17.5 -70.5t-43.5 -65.5h-168z" />
    <glyph glyph-name="uni0219" unicode="&#x219;" horiz-adv-x="842" 
d="M395 -13q-157 0 -247 35q-72 28 -100 79q-18 33 -18 84v1h312q0 -16 15 -26q21 -15 61 -15h2q46 0 62 10q15 9 15 24q0 16 -17 24q-17 7 -69 10l-95 7q-158 7 -223 65q-27 24 -37.5 53t-10.5 65v6q0 77 73 116q86 46 287 46h21q213 0 301 -55q68 -42 68 -127v-1h-302
q-2 16 -15 25q-21 14 -61 14h-6q-43 0 -57 -8q-15 -7 -15 -25q0 -15 18 -23q19 -9 65 -10l98 -4q165 -7 229 -54q29 -21 41 -51t12 -69v-11q0 -39 -13.5 -70.5t-49.5 -55.5q-87 -59 -314 -59h-30zM340 -298q13 21 23.5 44.5t12.5 40.5h-112v167h305v-116q0 -35 -17.5 -70.5
t-43.5 -65.5h-168z" />
    <glyph glyph-name="uni0401" unicode="&#x401;" horiz-adv-x="927" 
d="M80 744h778v-190h-472v-80h457v-195h-457v-87h479v-192h-785v744zM444 951v-157h-271v157h271zM765 951v-157h-271v157h271z" />
    <glyph glyph-name="uni0403" unicode="&#x403;" horiz-adv-x="819" 
d="M80 0v744h719v-202h-414v-542h-305zM576 794h-278l100 161h315z" />
    <glyph glyph-name="uni040E" unicode="&#x40e;" horiz-adv-x="1031" 
d="M693 165q-27 -43 -52 -73t-53 -50q-31 -21 -72 -31.5t-97 -10.5h-286v202h137q26 0 26 21v1q0 11 -3.5 20t-13.5 24l-299 476h337l205 -341l206 341h326zM315 859q-40 47 -40 122h187q0 -22 12 -37q16 -21 50 -21h2q33 0 49 21q12 17 12 37h184q0 -31 -10.5 -63
t-34.5 -59q-63 -70 -195 -70h-16q-142 0 -200 70z" />
    <glyph glyph-name="uni0410" unicode="&#x410;" horiz-adv-x="1079" 
d="M769 0l-51 111h-375l-51 -111h-305l353 744h395l357 -744h-323zM633 298l-102 226l-103 -226h205z" />
    <glyph glyph-name="uni0411" unicode="&#x411;" horiz-adv-x="1042" 
d="M80 744h873v-187h-568v-73h319q154 0 233 -69q70 -63 70 -167v-12q0 -104 -70 -167q-79 -69 -233 -69h-624v744zM612 187q75 0 75 54v4q0 25 -19 38.5t-56 13.5h-227v-110h227z" />
    <glyph glyph-name="uni0412" unicode="&#x412;" horiz-adv-x="1108" 
d="M80 744h663q152 0 223 -49q62 -44 62 -124v-5q0 -71 -53 -113q-21 -17 -46.5 -27t-49.5 -13q77 -10 125 -46q67 -49 67 -137v-9q0 -105 -72 -160q-81 -61 -256 -61h-663v744zM385 559v-93h257q39 0 55.5 11.5t16.5 33.5v2q0 24 -16 35t-56 11h-257zM385 296v-103h280
q44 0 66 18q13 12 13 34v3q0 22 -13 33q-20 15 -66 15h-280z" />
    <glyph glyph-name="uni0413" unicode="&#x413;" horiz-adv-x="819" 
d="M80 0v744h719v-202h-414v-542h-305z" />
    <glyph glyph-name="uni0414" unicode="&#x414;" horiz-adv-x="1184" 
d="M120 202q16 40 27.5 80.5t19.5 96.5q16 116 16 365h856v-542h120v-327h-275v125h-584v-125h-275v327h95zM734 202v340h-278q0 -140 -17 -227q-7 -33 -14 -55t-21 -58h330z" />
    <glyph glyph-name="uni0415" unicode="&#x415;" horiz-adv-x="927" 
d="M80 744h778v-190h-472v-80h457v-195h-457v-87h479v-192h-785v744z" />
    <glyph glyph-name="uni0416" unicode="&#x416;" horiz-adv-x="1533" 
d="M611 0v313l-264 -313h-368l353 404l-337 340h349l267 -270v270h304v-270l267 270h343l-330 -333l359 -411h-375l-264 313v-313h-304z" />
    <glyph glyph-name="uni0417" unicode="&#x417;" horiz-adv-x="1093" 
d="M1053 214q0 -116 -127 -173q-120 -54 -347 -54h-24q-242 0 -373 66q-142 72 -142 220v3h321q0 -56 48 -80t158 -24q85 0 126 15q40 13 40 47q0 31 -33 43t-98 12h-170v179h151q62 0 90 11q26 11 26 36q0 26 -28 39q-34 16 -115 16q-90 0 -138.5 -21.5t-50.5 -72.5h-321v4
q0 138 141 209q129 64 362 64h32q207 0 322 -52q116 -53 116 -146v-7q0 -65 -42 -104q-33 -32 -97 -48q71 -14 117 -53q56 -49 56 -119v-10z" />
    <glyph glyph-name="uni0418" unicode="&#x418;" horiz-adv-x="1105" 
d="M720 0v420l-335 -420h-305v744h305v-420l335 420h305v-744h-305z" />
    <glyph glyph-name="uni0419" unicode="&#x419;" horiz-adv-x="1105" 
d="M720 0v420l-335 -420h-305v744h305v-420l335 420h305v-744h-305zM354 859q-40 47 -40 122h187q0 -22 12 -37q16 -21 50 -21h2q33 0 49 21q12 17 12 37h184q0 -31 -10.5 -63t-34.5 -59q-63 -70 -195 -70h-16q-142 0 -200 70z" />
    <glyph glyph-name="uni041A" unicode="&#x41a;" horiz-adv-x="1022" 
d="M663 0l-279 320v-320h-304v744h304v-277l282 277h348l-345 -334l374 -410h-380z" />
    <glyph glyph-name="uni041B" unicode="&#x41b;" horiz-adv-x="1045" 
d="M660 542h-222q0 -156 -10 -246q-12 -97 -34 -146q-34 -79 -102.5 -114.5t-185.5 -35.5h-91v232h21q58 0 83 55q8 19 13 45.5t8 74.5q5 83 5 337h820v-744h-305v542z" />
    <glyph glyph-name="uni041C" unicode="&#x41c;" horiz-adv-x="1362" 
d="M80 0v744h426l181 -381l183 381h412v-744h-300v452l-217 -452h-175l-216 452v-452h-294z" />
    <glyph glyph-name="uni041D" unicode="&#x41d;" horiz-adv-x="1125" 
d="M80 0v744h305v-254h356v254h304v-744h-304v272h-356v-272h-305z" />
    <glyph glyph-name="uni041E" unicode="&#x41e;" horiz-adv-x="1133" 
d="M589 757q199 0 318 -62q102 -53 145 -144q34 -72 34 -162v-30q0 -92 -34 -161q-45 -94 -145 -147q-120 -64 -318 -64h-46q-195 0 -316 64q-102 54 -145 147q-35 74 -35 161v30q0 91 35 162q45 92 145 144q119 62 316 62h46zM766 381q0 61 -34 100q-49 56 -166 56
q-118 0 -167 -56q-33 -38 -33 -100v-10q0 -63 35 -103q50 -57 166 -57q115 0 165 57q34 39 34 103v10z" />
    <glyph glyph-name="uni041F" unicode="&#x41f;" horiz-adv-x="1079" 
d="M80 0v744h919v-744h-305v542h-309v-542h-305z" />
    <glyph glyph-name="uni0420" unicode="&#x420;" horiz-adv-x="1059" 
d="M385 213v-213h-305v744h564q211 0 300 -70q39 -32 56 -77.5t17 -105.5v-14q0 -126 -75 -189q-88 -75 -298 -75h-259zM385 417h229q50 0 70 20q16 15 16 42v2q0 24 -16 40q-21 19 -70 19h-229v-123z" />
    <glyph glyph-name="uni0421" unicode="&#x421;" horiz-adv-x="1110" 
d="M532 -13q-193 0 -308 65q-98 53 -142 148q-35 74 -35 159v30q0 86 35 159q45 93 141 145q118 64 309 64h45q199 0 319 -55q96 -44 138 -124q30 -57 30 -134v-11h-317l-6 23q-13 42 -81 67q-39 14 -105 14q-109 0 -157 -57q-32 -38 -32 -99v-11q0 -62 33 -101
q47 -58 157 -58q113 0 161 46q19 16 24 34l6 21h317v-12q0 -69 -30 -128q-41 -80 -138 -127q-119 -58 -319 -58h-45z" />
    <glyph glyph-name="uni0422" unicode="&#x422;" horiz-adv-x="1004" 
d="M350 0v519h-304v225h912v-225h-304v-519h-304z" />
    <glyph glyph-name="uni0423" unicode="&#x423;" horiz-adv-x="1031" 
d="M693 165q-27 -43 -52 -73t-53 -50q-31 -21 -72 -31.5t-97 -10.5h-286v202h137q26 0 26 21v1q0 11 -3.5 20t-13.5 24l-299 476h337l205 -341l206 341h326z" />
    <glyph glyph-name="uni0424" unicode="&#x424;" horiz-adv-x="1449" 
d="M572 754h305v-77h167q167 0 263 -66q107 -73 107 -224v-8q0 -152 -107 -230q-50 -36 -118 -54.5t-147 -18.5h-165v-86h-305v86h-165q-79 0 -146.5 18.5t-117.5 54.5q-108 78 -108 230v8q0 151 107 224q96 66 263 66h167v77zM474 475q-52 0 -85.5 -22.5t-33.5 -65.5v-8
q0 -50 35 -77q30 -24 84 -24h98v197h-98zM877 278h98q54 0 84 24q35 27 35 77v8q0 43 -33.5 65.5t-85.5 22.5h-98v-197z" />
    <glyph glyph-name="uni0425" unicode="&#x425;" horiz-adv-x="1050" 
d="M698 0l-176 236l-175 -236h-360l289 390l-273 354h375l157 -212l158 212h346l-269 -355l293 -389h-365z" />
    <glyph glyph-name="uni0426" unicode="&#x426;" horiz-adv-x="1144" 
d="M844 -125v125h-764v744h305v-542h309v542h305v-542h120v-327h-275z" />
    <glyph glyph-name="uni0427" unicode="&#x427;" horiz-adv-x="1092" 
d="M707 258q-32 -4 -103 -10q-63 -5 -115 -5q-119 0 -201 17t-133 55q-52 38 -76 98.5t-24 150.5v180h305v-143q0 -44 11.5 -72t36.5 -44q44 -29 154 -29q34 0 76 3q53 4 69 7v278h305v-744h-305v258z" />
    <glyph glyph-name="uni0428" unicode="&#x428;" horiz-adv-x="1445" 
d="M80 0v744h305v-542h185v542h305v-542h185v542h305v-744h-1285z" />
    <glyph glyph-name="uni0429" unicode="&#x429;" horiz-adv-x="1510" 
d="M80 0v744h305v-542h185v542h305v-542h185v542h305v-542h120v-327h-275v125h-1130z" />
    <glyph glyph-name="uni042A" unicode="&#x42a;" horiz-adv-x="1219" 
d="M549 530h264q209 0 297 -69q40 -32 57 -79t17 -110v-11q0 -120 -76 -184q-90 -77 -296 -77h-568v542h-224v202h529v-214zM786 202q38 0 58 16.5t20 44.5v7q0 27 -20 42.5t-58 15.5h-237v-126h237z" />
    <glyph glyph-name="uni042B" unicode="&#x42b;" horiz-adv-x="1520" 
d="M385 530h264q209 0 297 -69q40 -32 57 -79t17 -110v-11q0 -120 -76 -184q-90 -77 -296 -77h-568v744h305v-214zM622 202q38 0 58 16.5t20 44.5v7q0 27 -20 42.5t-58 15.5h-237v-126h237zM1440 744v-744h-305v744h305z" />
    <glyph glyph-name="uni042C" unicode="&#x42c;" horiz-adv-x="1055" 
d="M385 530h264q209 0 297 -69q40 -32 57 -79t17 -110v-11q0 -120 -76 -184q-90 -77 -296 -77h-568v744h305v-214zM622 202q38 0 58 16.5t20 44.5v7q0 27 -20 42.5t-58 15.5h-237v-126h237z" />
    <glyph glyph-name="uni042D" unicode="&#x42d;" horiz-adv-x="1110" 
d="M1063 359q0 -87 -34 -159q-44 -94 -142 -148q-117 -65 -309 -65h-45q-194 0 -314 55q-98 44 -141 119q-32 55 -32 119v12h317l6 -18q13 -35 81 -56q38 -12 104 -12q148 0 182 78h-292v186h291q-35 72 -180 72q-113 0 -162 -39q-19 -16 -24 -30l-6 -20h-317v11
q0 66 35 125q45 74 142 117q118 51 310 51h45q191 0 309 -64q98 -53 142 -145q34 -71 34 -159v-30z" />
    <glyph glyph-name="uni042E" unicode="&#x42e;" horiz-adv-x="1543" 
d="M1496 359q0 -91 -33 -161q-43 -94 -142 -147q-120 -64 -312 -64h-46q-232 0 -354 92q-96 73 -123 193h-101v-272h-305v744h305v-254h105q29 116 126 183q123 84 347 84h46q194 0 311 -62q100 -53 143 -144q33 -70 33 -162v-30zM1176 381q0 62 -32 100q-47 56 -158 56
q-112 0 -158 -56q-32 -39 -32 -100v-10q0 -64 33 -103q48 -57 158 -57q109 0 157 57q32 38 32 103v10z" />
    <glyph glyph-name="uni042F" unicode="&#x42f;" horiz-adv-x="1148" 
d="M608 223l-223 -223h-360l259 259q-106 18 -163 76.5t-57 149.5v10q0 54 20 99.5t59 78.5q84 71 234 71h691v-744h-305v223h-155zM763 539h-304q-43 0 -61 -16q-14 -13 -14 -36v-1q0 -25 14 -38q20 -18 61 -18h304v109z" />
    <glyph glyph-name="uni0430" unicode="&#x430;" horiz-adv-x="867" 
d="M449 21q-68 -33 -156 -33h-18q-116 0 -176.5 48t-60.5 134v5q0 40 14 69.5t44 50.5q61 42 209 49l161 8q21 1 29.5 7.5t8.5 21.5v1q0 18 -15 30q-17 11 -65 11h-7q-50 0 -70 -20q-13 -12 -13 -28h-283v1q0 38 12 71.5t45 60.5q82 67 293 67h35q216 0 299 -64
q33 -26 44.5 -59t11.5 -75v-166q0 -19 16 -19h37v-192h-236q-37 0 -65 23q-22 18 -32 43q-29 -29 -62 -45zM477 166q27 24 27 63v19l-89 -14q-53 -7 -74 -20q-9 -7 -13 -14.5t-4 -19.5v-1q0 -20 17.5 -31t49.5 -11q54 0 86 29z" />
    <glyph glyph-name="uni0431" unicode="&#x431;" horiz-adv-x="919" 
d="M880 254q0 -143 -121 -211q-104 -58 -289 -58h-20q-188 0 -287 66q-124 82 -124 274v11q0 204 115 307q108 96 309 96h59q38 0 51 5q12 5 17 13h270q0 -60 -7.5 -97t-29.5 -60q-24 -25 -70 -37t-121 -12h-121q-114 0 -162 -31q-22 -14 -31.5 -35t-10.5 -50q50 39 106 55
q63 19 152 19h20q53 0 105 -13t92 -41q98 -69 98 -194v-7zM462 160q50 0 81 24.5t31 71.5t-31 71.5t-81 24.5h-6q-49 0 -80 -24.5t-31 -72.5q0 -47 30.5 -71t80.5 -24h6z" />
    <glyph glyph-name="uni0432" unicode="&#x432;" horiz-adv-x="933" 
d="M68 0v560h600q97 0 152 -35t55 -100v-5q0 -53 -29.5 -85.5t-81.5 -40.5q53 -6 90 -40q39 -36 39 -94v-4q0 -156 -205 -156h-620zM510 344q32 0 46 10.5t14 31.5q0 42 -60 42h-150v-84h150zM519 132q36 0 52.5 11t16.5 35q0 22 -16 33.5t-53 11.5h-159v-91h159z" />
    <glyph glyph-name="uni0433" unicode="&#x433;" horiz-adv-x="669" 
d="M68 0v560h581v-175h-289v-385h-292z" />
    <glyph glyph-name="uni0434" unicode="&#x434;" horiz-adv-x="987" 
d="M25 175h75q20 48 30 161q7 78 7 224h725v-385h100v-293h-262v118h-413v-118h-262v293zM570 175v215h-177q0 -60 -11 -120q-12 -66 -21 -95h209z" />
    <glyph glyph-name="uni0435" unicode="&#x435;" horiz-adv-x="915" 
d="M875 187q-6 -81 -72 -130q-98 -72 -318 -72h-49q-226 0 -324 100q-39 39 -56 88t-17 100v14q0 119 74 192q98 96 316 96h46q233 0 329 -98q40 -42 56.5 -97.5t16.5 -123.5v-23h-534q9 -43 38.5 -63t87.5 -20q49 0 76 16q12 7 16 12l6 9h308zM379 407.5
q-26 -18.5 -34 -58.5h223q-2 37 -25 55q-29 22 -86 22q-52 0 -78 -18.5z" />
    <glyph glyph-name="uni0436" unicode="&#x436;" horiz-adv-x="1231" 
d="M467 0v242l-163 -242h-314l215 302l-201 258h315l148 -206v206h292v-206l148 206h309l-195 -250l220 -310h-319l-163 242v-242h-292z" />
    <glyph glyph-name="uni0437" unicode="&#x437;" horiz-adv-x="912" 
d="M872 155q0 -83 -94 -126q-96 -44 -300 -44h-18q-218 0 -325 60q-95 53 -95 151v8h306q4 -39 46 -55q32 -12 78 -12t71.5 11t25.5 38q0 23 -17.5 31.5t-59.5 8.5h-123v123h123q32 0 45.5 9t13.5 28q0 18 -19 28t-71 10q-45 0 -77 -13t-35 -38h-302v3q0 100 100 149
q100 50 307 50h16q196 0 292 -38q94 -37 94 -116v-4q0 -50 -48 -86q-35 -26 -82 -36q61 -15 95 -38q53 -37 53 -96v-6z" />
    <glyph glyph-name="uni0438" unicode="&#x438;" horiz-adv-x="943" 
d="M583 296l-218 -296h-297v560h292v-301l218 301h297v-560h-292v296z" />
    <glyph glyph-name="uni0439" unicode="&#x439;" horiz-adv-x="943" 
d="M583 296l-218 -296h-297v560h292v-301l218 301h297v-560h-292v296zM267 678q-23 28 -33.5 60.5t-10.5 63.5h186q0 -22 10 -37q15 -24 49 -24h2q34 0 48 23q11 17 11 38h186q0 -73 -43 -124q-60 -71 -196 -71h-14q-135 0 -195 71z" />
    <glyph glyph-name="uni043A" unicode="&#x43a;" horiz-adv-x="832" 
d="M518 0l-158 234v-234h-292v560h292v-200l143 200h314l-195 -250l220 -310h-324z" />
    <glyph glyph-name="uni043B" unicode="&#x43b;" horiz-adv-x="896" 
d="M536 385h-138q0 -95 -5.5 -160t-18.5 -101q-22 -55 -59 -83q-56 -41 -165 -41h-115v175h12q29 0 45.5 11.5t24.5 41.5q9 33 12 101q1 24 1 92v139h698v-560h-292v385z" />
    <glyph glyph-name="uni043C" unicode="&#x43c;" horiz-adv-x="1163" 
d="M338 329v-329h-270v560h435l110 -224l110 224h372v-560h-282v329l-163 -329h-149z" />
    <glyph glyph-name="uni043D" unicode="&#x43d;" horiz-adv-x="932" 
d="M360 0h-292v560h292v-188h212v188h292v-560h-292v197h-212v-197z" />
    <glyph glyph-name="uni043E" unicode="&#x43e;" horiz-adv-x="919" 
d="M442 -15q-169 0 -268 53q-79 41 -112 116q-23 52 -23 117v14q0 66 23 119q33 75 112 118q98 53 267 53h36q175 0 274 -53q80 -45 109 -118q20 -52 20 -118v-16q0 -67 -20 -116q-30 -75 -110 -116q-99 -53 -274 -53h-34zM462 165q59 0 89 42q23 31 23 75q0 46 -23 77
q-28 38 -89 38h-6q-62 0 -88 -38q-23 -31 -23 -77t22 -76q27 -41 89 -41h6z" />
    <glyph glyph-name="uni043F" unicode="&#x43f;" horiz-adv-x="895" 
d="M68 0v560h759v-560h-292v385h-175v-385h-292z" />
    <glyph glyph-name="uni0440" unicode="&#x440;" horiz-adv-x="931" 
d="M68 560h292v-66q28 28 74 48q67 29 153 29h5q161 0 237 -86q62 -70 62 -195v-17q0 -54 -16 -103.5t-50 -88.5q-80 -92 -249 -92h-5q-85 0 -146 27q-32 14 -65 41v-245h-292v748zM585 282q0 18 -6.5 37.5t-18.5 35.5q-29 37 -87 37h-2q-59 0 -88 -38q-12 -16 -18 -35
t-6 -36v-8q0 -43 24 -71q27 -35 88 -35h2q58 0 87 36q12 14 18.5 33t6.5 38v6z" />
    <glyph glyph-name="uni0441" unicode="&#x441;" horiz-adv-x="894" 
d="M835 136q-31 -67 -105 -104q-96 -47 -256 -47h-49q-226 0 -320 103q-67 73 -67 193v14q0 114 69 184q96 96 317 96h36q173 0 270 -46q78 -37 108 -100q18 -40 18 -96v-1h-304q-3 23 -20 39q-27 25 -78 25h-8q-54 0 -80 -33q-22 -27 -22 -77v-1q0 -51 22 -81
q26 -38 79 -38h7q53 0 80 29q18 19 20 45h304v-1q0 -57 -21 -103z" />
    <glyph glyph-name="uni0442" unicode="&#x442;" horiz-adv-x="742" 
d="M225 0v385h-205v175h702v-175h-205v-385h-292z" />
    <glyph glyph-name="uni0443" unicode="&#x443;" horiz-adv-x="831" 
d="M103 -13h132q22 0 22 13q0 7 -6.5 20.5t-8.5 17.5l-247 522h321l120 -344l100 344h300l-244 -600q-31 -76 -82.5 -112t-136.5 -36h-270v175z" />
    <glyph glyph-name="uni0444" unicode="&#x444;" horiz-adv-x="1226" 
d="M759 -15v-173h-292v173h-15q-174 0 -275 53q-81 41 -114 116q-24 52 -24 117v14q0 66 24 119q33 74 114 118q101 53 274 53h16v169h292v-169h15q179 0 280 -53q82 -44 113 -118q20 -49 20 -118v-16q0 -69 -20 -116q-32 -75 -113 -116q-101 -53 -281 -53h-14zM467 160v242
h-11q-60 0 -88 -40q-23 -32 -23 -80q0 -47 22 -78q28 -44 89 -44h11zM759 402v-242h10q59 0 89 44q12 17 17.5 38t5.5 40q0 48 -23 80q-30 40 -89 40h-10z" />
    <glyph glyph-name="uni0445" unicode="&#x445;" horiz-adv-x="833" 
d="M516 0l-104 168l-104 -168h-316l198 291l-195 269h329l100 -152l100 152h312l-192 -269l197 -291h-325z" />
    <glyph glyph-name="uni0446" unicode="&#x446;" horiz-adv-x="952" 
d="M927 175v-293h-262v118h-597v560h292v-385h175v385h292v-385h100z" />
    <glyph glyph-name="uni0447" unicode="&#x447;" horiz-adv-x="883" 
d="M815 560v-560h-292v183q-74 -12 -170 -12q-93 0 -153.5 15t-97.5 48q-36 32 -51.5 83t-15.5 126v117h292v-108q0 -58 27.5 -78.5t95.5 -20.5q35 0 73 8v199h292z" />
    <glyph glyph-name="uni0448" unicode="&#x448;" horiz-adv-x="1262" 
d="M68 0v560h292v-385h125v385h292v-385h125v385h292v-560h-1126z" />
    <glyph glyph-name="uni0449" unicode="&#x449;" horiz-adv-x="1319" 
d="M68 0v560h292v-385h125v385h292v-385h125v385h292v-385h100v-293h-262v118h-964z" />
    <glyph glyph-name="uni044A" unicode="&#x44a;" horiz-adv-x="1020" 
d="M20 560h444v-134h257q136 0 204 -60q60 -53 60 -145v-12q0 -100 -60 -151q-66 -58 -204 -58h-549v385h-152v175zM622 168q27 0 42.5 9.5t15.5 36.5v3q0 24 -15.5 33.5t-42.5 9.5h-158v-92h158z" />
    <glyph glyph-name="uni044B" unicode="&#x44b;" horiz-adv-x="1344" 
d="M68 560h292v-134h257q136 0 204 -60q60 -53 60 -145v-12q0 -100 -60 -151q-66 -58 -204 -58h-549v560zM518 168q27 0 42.5 9.5t15.5 36.5v3q0 24 -15.5 33.5t-42.5 9.5h-158v-92h158zM1276 560v-560h-292v560h292z" />
    <glyph glyph-name="uni044C" unicode="&#x44c;" horiz-adv-x="916" 
d="M68 560h292v-134h257q136 0 204 -60q60 -53 60 -145v-12q0 -100 -60 -151q-66 -58 -204 -58h-549v560zM518 168q27 0 42.5 9.5t15.5 36.5v3q0 24 -15.5 33.5t-42.5 9.5h-158v-92h158z" />
    <glyph glyph-name="uni044D" unicode="&#x44d;" horiz-adv-x="894" 
d="M856 281q0 -121 -66 -193q-94 -103 -321 -103h-49q-163 0 -255 46q-76 36 -106 99q-21 44 -21 99v1h304q2 -25 21 -45q27 -29 85 -29h7q44 0 67.5 17t31.5 53h-170v120h169q-10 31 -33.5 45.5t-65.5 14.5h-8q-53 0 -82 -25q-19 -16 -22 -39h-304v1q0 53 19 92
q27 59 107 96q96 44 270 44h36q221 0 317 -96q69 -70 69 -184v-14z" />
    <glyph glyph-name="uni044E" unicode="&#x44e;" horiz-adv-x="1289" 
d="M1250 270q0 -66 -19 -116q-30 -75 -107 -116q-96 -53 -268 -53h-34q-188 0 -289 70q-75 51 -96 142h-77v-197h-292v560h292v-188h80q23 86 100 137q100 66 281 66h36q171 0 267 -53q78 -44 107 -118q19 -52 19 -118v-16zM842 165q53 0 81 42q21 30 21 75q0 47 -21 77
q-26 38 -81 38h-6q-56 0 -81 -38q-20 -31 -20 -77q0 -47 20 -76q26 -41 81 -41h6z" />
    <glyph glyph-name="uni044F" unicode="&#x44f;" horiz-adv-x="942" 
d="M488 158l-118 -158h-325l148 199q-60 18 -92 60t-32 104v5q0 90 58 138q65 54 199 54h548v-560h-292v158h-94zM436 405q-27 0 -44.5 -12.5t-17.5 -37.5v-2q0 -26 17.5 -38.5t44.5 -12.5h146v103h-146z" />
    <glyph glyph-name="uni0451" unicode="&#x451;" horiz-adv-x="915" 
d="M875 187q-6 -81 -72 -130q-98 -72 -318 -72h-49q-226 0 -324 100q-39 39 -56 88t-17 100v14q0 119 74 192q98 96 316 96h46q233 0 329 -98q40 -42 56.5 -97.5t16.5 -123.5v-23h-534q9 -43 38.5 -63t87.5 -20q49 0 76 16q12 7 16 12l6 9h308zM379 407.5
q-26 -18.5 -34 -58.5h223q-2 37 -25 55q-29 22 -86 22q-52 0 -78 -18.5zM430 763v-157h-268v157h268zM746 763v-157h-268v157h268z" />
    <glyph glyph-name="uni0453" unicode="&#x453;" horiz-adv-x="669" 
d="M68 0v560h581v-175h-289v-385h-292zM205 611l104 164h314l-142 -164h-276z" />
    <glyph glyph-name="uni045E" unicode="&#x45e;" horiz-adv-x="831" 
d="M103 -13h132q22 0 22 13q0 7 -6.5 20.5t-8.5 17.5l-247 522h321l120 -344l100 344h300l-244 -600q-31 -76 -82.5 -112t-136.5 -36h-270v175zM234 678q-23 28 -33.5 60.5t-10.5 63.5h186q0 -22 10 -37q15 -24 49 -24h2q34 0 48 23q11 17 11 38h186q0 -73 -43 -124
q-60 -71 -196 -71h-14q-135 0 -195 71z" />
    <glyph glyph-name="uni0490" unicode="&#x490;" horiz-adv-x="819" 
d="M80 0v744h444v142h275v-344h-414v-542h-305z" />
    <glyph glyph-name="Wgrave" unicode="&#x1e80;" horiz-adv-x="1472" 
d="M604 0h-357l-254 744h328l135 -466l138 466h314l137 -466l136 466h298l-249 -744h-356l-135 433zM613 794l-137 161h315l100 -161h-278z" />
    <glyph glyph-name="wgrave" unicode="&#x1e81;" horiz-adv-x="1255" 
d="M542 0h-351l-190 560h310l77 -326l97 326h306l96 -325l77 325h290l-179 -560h-358l-91 286zM670 775l105 -164h-276l-143 164h314z" />
    <glyph glyph-name="Wacute" unicode="&#x1e82;" horiz-adv-x="1472" 
d="M604 0h-357l-254 744h328l135 -466l138 466h314l137 -466l136 466h298l-249 -744h-356l-135 433zM890 794h-278l100 161h315z" />
    <glyph glyph-name="wacute" unicode="&#x1e83;" horiz-adv-x="1255" 
d="M542 0h-351l-190 560h310l77 -326l97 326h306l96 -325l77 325h290l-179 -560h-358l-91 286zM498 611l104 164h314l-142 -164h-276z" />
    <glyph glyph-name="Wdieresis" unicode="&#x1e84;" horiz-adv-x="1472" 
d="M604 0h-357l-254 744h328l135 -466l138 466h314l137 -466l136 466h298l-249 -744h-356l-135 433zM726 951v-157h-271v157h271zM1047 951v-157h-271v157h271z" />
    <glyph glyph-name="wdieresis" unicode="&#x1e85;" horiz-adv-x="1255" 
d="M542 0h-351l-190 560h310l77 -326l97 326h306l96 -325l77 325h290l-179 -560h-358l-91 286zM612 763v-157h-268v157h268zM928 763v-157h-268v157h268z" />
    <glyph glyph-name="Ygrave" unicode="&#x1ef2;" horiz-adv-x="1044" 
d="M376 0v262l-399 482h369l195 -247l200 247h326l-387 -482v-262h-304zM405 794l-137 161h315l100 -161h-278z" />
    <glyph glyph-name="ygrave" unicode="&#x1ef3;" horiz-adv-x="831" 
d="M103 -13h132q22 0 22 13q0 7 -6.5 20.5t-8.5 17.5l-247 522h321l120 -344l100 344h300l-244 -600q-31 -76 -82.5 -112t-136.5 -36h-270v175zM461 775l105 -164h-276l-143 164h314z" />
    <glyph glyph-name="endash" unicode="&#x2013;" horiz-adv-x="896" 
d="M60 386h776v-170h-776v170z" />
    <glyph glyph-name="glyph45" 
d="M455 775l105 -164h-276l-143 164h314z" />
    <glyph glyph-name="glyph72" 
d="M326 763v-157h-268v157h268zM642 763v-157h-268v157h268z" />
    <glyph glyph-name="glyph73" 
d="M123 616v141h453v-141h-453z" />
    <glyph glyph-name="glyph74" 
d="M140 611l104 164h314l-142 -164h-276z" />
    <glyph glyph-name="glyph137" 
d="M521 775l142 -166h-259l-56 68l-55 -68h-256l140 166h344z" />
    <glyph glyph-name="glyph138" 
d="M177 611l-142 164h259l56 -67l55 67h256l-140 -164h-344z" />
    <glyph glyph-name="glyph139" 
d="M148 678q-23 28 -33.5 60.5t-10.5 63.5h186q0 -22 10 -37q15 -24 49 -24h2q34 0 48 23q11 17 11 38h186q0 -73 -43 -124q-60 -71 -196 -71h-14q-135 0 -195 71z" />
    <glyph glyph-name="glyph140" 
d="M496 763v-157h-292v157h292z" />
    <glyph glyph-name="glyph141" 
d="M191 834q49 44 159 44q111 0 160 -44q37 -33 37 -93q0 -61 -37 -95q-48 -46 -160 -46t-160 46q-37 34 -37 95q0 59 38 93zM306 702.5q14 -15.5 44 -15.5q31 0 45 15t14 39q0 21 -14 35.5t-45 14.5q-30 0 -44 -14.5t-14 -35.5q0 -23 14 -38.5z" />
    <glyph glyph-name="glyph142" 
d="M313 -188q-65 0 -95 17.5t-30 53.5v3q0 41 43 65q44 25 162 49h119q-26 -14 -51 -29q-20 -14 -20 -27q0 -21 38 -21h33v-111h-199z" />
    <glyph glyph-name="glyph143" 
d="M588 718q0 -46 -24 -76q-28 -34 -79 -34h-4q-31 0 -63 9q-29 8 -81 30q-23 11 -36 15q-15 5 -21 5q-16 0 -16 -21v-42h-151v100q0 46 25 77q26 33 78 33h4q35 0 63 -8q21 -6 81 -31q23 -11 36 -15q15 -5 21 -5q16 0 16 21v42h151v-100z" />
    <glyph glyph-name="glyph144" 
d="M18 611l88 164h260l-94 -164h-254zM324 611l96 164h261l-102 -164h-255z" />
    <glyph glyph-name="glyph219" horiz-adv-x="428" 
d="M360 763v-157h-292v157h292zM360 560v-560h-292v560h292z" />
    <glyph glyph-name="f_f.liga" horiz-adv-x="1076" 
d="M145 0v378h-109v182h109v20q0 93 40 133q44 44 153 44h202v-145h-72q-20 0 -28 -8.5t-8 -27.5v-16h213v20q0 93 40 133q44 44 153 44h202v-145h-72q-20 0 -28 -8.5t-8 -27.5v-16h108v-182h-108v-378h-287v378h-213v-378h-287z" />
    <glyph glyph-name="f_f_t.liga" horiz-adv-x="1588" 
d="M432 378v-378h-287v378h-109v182h109v20q0 93 40 133q44 44 153 44h202v-145h-72q-20 0 -28 -8.5t-8 -27.5v-16h213v20q0 93 40 133q44 44 153 44h197v-145h-67q-20 0 -28 -8.5t-8 -27.5v-16h213v167h287v-167h108v-182h-108v-127q0 -31 10.5 -42.5t42.5 -11.5h55v-197
h-238q-70 0 -111 37q-46 39 -46 110v231h-213v-378h-287v378h-213z" />
    <glyph glyph-name="f_i.liga" horiz-adv-x="1004" 
d="M540 612h-72q-20 0 -28 -8.5t-8 -27.5v-16h108v-182h-108v-378h-287v378h-109v182h109v20q0 93 40 133q44 44 153 44h202v-145zM936 763v-157h-292v157h292zM936 560v-560h-292v560h292z" />
    <glyph glyph-name="f_l.liga" horiz-adv-x="1004" 
d="M540 612h-72q-20 0 -28 -8.5t-8 -27.5v-16h108v-182h-108v-378h-287v378h-109v182h109v20q0 93 40 133q44 44 153 44h202v-145zM936 757v-757h-292v757h292z" />
    <glyph glyph-name="f_t.liga" horiz-adv-x="1088" 
d="M432 378v-378h-287v378h-109v182h109v20q0 93 40 133q44 44 153 44h197v-145h-67q-20 0 -28 -8.5t-8 -27.5v-16h213v167h287v-167h108v-182h-108v-127q0 -31 10.5 -42.5t42.5 -11.5h55v-197h-238q-70 0 -111 37q-46 39 -46 110v231h-213z" />
    <glyph glyph-name="glyph259" 
d="M274 -298q13 21 23.5 44.5t12.5 40.5h-112v167h305v-116q0 -35 -17.5 -70.5t-43.5 -65.5h-168z" />
    <glyph glyph-name="glyph260" horiz-adv-x="670" 
d="M47 232h122q68 0 92 30q12 15 17.5 39t5.5 60v383h306v-453q0 -153 -70 -222t-219 -69h-254v232z" />
    <glyph glyph-name="I_J.locl" horiz-adv-x="1135" 
d="M385 744v-744h-305v744h305zM512 232h122q68 0 92 30q12 15 17.5 39t5.5 60v383h306v-453q0 -153 -70 -222t-219 -69h-254v232z" />
    <glyph glyph-name="glyph262" 
d="M425 862q-30 -50 -34 -85h109v-165h-300v116q0 35 17.5 70.5t42.5 63.5h165z" />
    <glyph glyph-name="glyph263" 
d="M280 794l-137 161h315l100 -161h-278z" />
    <glyph glyph-name="glyph264" 
d="M325 951v-157h-271v157h271zM646 951v-157h-271v157h271z" />
    <glyph glyph-name="glyph265" horiz-adv-x="699" 
d="M122 803v141h453v-141h-453z" />
    <glyph glyph-name="glyph266" 
d="M420 794h-278l100 161h315z" />
    <glyph glyph-name="glyph267" 
d="M517 955l149 -163h-259l-59 68l-59 -68h-254l145 163h337z" />
    <glyph glyph-name="glyph268" 
d="M184 794l-149 161h259l59 -67l59 67h254l-145 -161h-337z" />
    <glyph glyph-name="glyph269" 
d="M142 859q-40 47 -40 122h187q0 -22 12 -37q16 -21 50 -21h2q33 0 49 21q12 17 12 37h184q0 -31 -10.5 -63t-34.5 -59q-63 -70 -195 -70h-16q-142 0 -200 70z" />
    <glyph glyph-name="glyph270" 
d="M496 951v-157h-292v157h292z" />
    <glyph glyph-name="glyph271" 
d="M188 1018q51 44 162 44q113 0 164 -44q38 -33 38 -93q0 -61 -38 -95q-49 -46 -164 -46q-114 0 -163 46q-39 35 -39 95q0 58 40 93zM399 960.5q-15 14.5 -49 14.5q-33 0 -48.5 -14.5t-15.5 -35.5q0 -23 15.5 -38.5t48.5 -15.5q34 0 49 15t15 39q0 21 -15 35.5z" />
    <glyph glyph-name="glyph272" 
d="M262 791h-151v96q0 47 24 77q28 33 82 33h3q29 0 64 -9q26 -7 64 -22q4 -1 8.5 -3t10.5 -4q19 -8 37 -13q9 -4 19 -4q16 0 16 21v38h151v-96q0 -48 -24 -76q-28 -34 -82 -34h-3q-26 0 -64 10q-26 7 -83 28l-36 14q-11 3 -20 3q-16 0 -16 -21v-38z" />
    <glyph glyph-name="glyph273" 
d="M23 794l82 161h258l-89 -161h-251zM328 794l92 161h258l-96 -161h-254z" />
    <glyph glyph-name="glyph274" horiz-adv-x="576" 
d="M540 612h-72q-20 0 -28 -8.5t-8 -27.5v-16h108v-182h-108v-378h-287v378h-109v182h109v20q0 93 40 133q44 44 153 44h202v-145z" />
    <glyph glyph-name="glyph275" horiz-adv-x="1076" 
d="M145 0v378h-109v182h109v20q0 93 40 133q44 44 153 44h202v-145h-72q-20 0 -28 -8.5t-8 -27.5v-16h213v20q0 93 40 133q44 44 153 44h202v-145h-72q-20 0 -28 -8.5t-8 -27.5v-16h108v-182h-108v-378h-287v378h-213v-378h-287z" />
    <glyph glyph-name="uni0414.locl" horiz-adv-x="1154" 
d="M295 0v-125h-275v327h100l259 542h381l272 -542h102v-327h-275v125h-564zM420 202h271l-135 291z" />
    <glyph glyph-name="uni0416.locl" horiz-adv-x="1533" 
d="M611 0v313l-264 -313h-368l353 404l-337 340h349l267 -270v270h304v-270l267 270h343l-330 -333l359 -411h-375l-264 313v-313h-304z" />
    <glyph glyph-name="uni041A.locl" horiz-adv-x="1022" 
d="M384 0h-304v744h304v-277l282 277h348l-345 -334l374 -410h-380l-279 320v-320z" />
    <glyph glyph-name="uni041B.locl" horiz-adv-x="1075" 
 />
    <glyph glyph-name="uni0431.locl" horiz-adv-x="920" 
d="M880 248q0 -60 -25 -109q-36 -69 -116 -106q-99 -48 -265 -48h-31q-158 0 -257 48q-83 39 -118 106q-28 52 -28 110v14q0 58 37 104.5t109 68.5q-116 37 -116 139q0 87 66 128q58 36 178 36h208q38 0 51 5q12 5 17 13h270q0 -60 -7.5 -97t-29.5 -60q-24 -25 -70 -37
t-121 -12h-250q-43 0 -56 -4q-16 -4 -16 -18q0 -12 16 -16q16 -6 58 -6h91q166 0 265 -43q80 -35 115 -98q25 -45 25 -102v-16zM464 150q57 0 86 34q24 27 24 62q0 38 -23 64q-29 32 -87 32h-11q-60 0 -87 -32q-22 -26 -22 -64q0 -37 21 -62q27 -34 88 -34h11z" />
    <glyph glyph-name="uni0432.locl" horiz-adv-x="932" 
d="M897 238q0 -124 -111 -190q-106 -63 -289 -63h-33q-171 0 -274 62q-124 73 -124 225v177q0 159 113 238q100 70 278 70h37q175 0 272 -51q100 -53 100 -152v-13q0 -55 -33 -98q-16 -20 -36.5 -33.5t-41.5 -17.5q53 -8 96 -45q46 -43 46 -102v-7zM358 453h129
q54 0 78 15.5t24 48.5v3q0 34 -25.5 53.5t-79.5 19.5h-9q-52 0 -82 -23q-35 -27 -35 -81v-36zM485 155q115 0 115 86v4q0 35 -24 53q-29 22 -88 22h-130v-47q0 -67 38 -96q28 -22 78 -22h11z" />
    <glyph glyph-name="uni0433.locl" horiz-adv-x="852" 
d="M812 185q0 -51 -18 -84q-28 -52 -99 -79q-90 -35 -248 -35h-30q-228 0 -313 59q-37 24 -50.5 55.5t-13.5 70.5v11q0 38 12 66t41 49q66 45 229 56l98 7q47 3 66 11q17 8 17 22q0 17 -14 25q-16 8 -58 8h-6q-41 0 -60 -14q-14 -9 -16 -25h-302v1q0 85 68 127q88 55 301 55
h21q202 0 288 -46q39 -21 55.5 -50t16.5 -66v-6q0 -35 -10.5 -62t-37.5 -49q-64 -53 -223 -69l-95 -10q-50 -4 -68 -11t-18 -23q0 -15 16 -24q14 -10 61 -10h2q40 0 61 15q15 11 15 26h312v-1z" />
    <glyph glyph-name="uni0434.locl" horiz-adv-x="935" 
d="M458 -204q-162 0 -254 34q-74 26 -107 75q-22 32 -22 81v2h326q2 -4 5 -7q10 -10 37 -14q15 -3 38 -3h6q42 0 65 24.5t23 66.5v34q-17 -21 -63 -42q-58 -28 -144 -28h-13q-165 0 -246 81q-35 35 -52 83t-17 102v18q0 54 16.5 103t51.5 85q79 82 238 82h11q83 0 152 -25
q22 -8 35.5 -16.5t30.5 -20.5v49h292v-496q0 -128 -82 -193q-94 -75 -301 -75h-26zM458 398q-59 0 -87 -33q-25 -29 -25 -70v-1q0 -19 6.5 -38t18.5 -33q29 -34 87 -34h6q59 0 88 34q24 28 24 68v5q0 16 -6 34t-18 33q-30 35 -88 35h-6z" />
    <glyph glyph-name="uni0436.locl" horiz-adv-x="1231" 
d="M467 0v242l-163 -242h-314l215 302l-201 258h315l148 -206v403h292v-403l148 206h309l-195 -250l220 -310h-319l-163 242v-242h-292z" />
    <glyph glyph-name="uni0437.locl" horiz-adv-x="932" 
d="M892 39q0 -120 -102 -181.5t-302 -61.5h-18q-220 0 -325 70t-105 214v8h306q6 -68 43 -98q31 -26 90 -26q52 0 80 20t28 61q0 39 -24 58.5t-70 19.5h-126v163h124q78 0 78 60q0 31 -24 46.5t-76 15.5q-107 0 -122 -84h-302v3q0 59 31.5 106.5t89.5 79.5q111 62 293 62h16
q194 0 296.5 -51.5t102.5 -146.5v-4q0 -72 -36.5 -114.5t-93.5 -52.5q62 -12 101 -50q47 -45 47 -111v-6z" />
    <glyph glyph-name="uni0438.locl" horiz-adv-x="914" 
d="M846 0h-290v87q-34 -40 -82 -65q-72 -38 -161 -38h-10q-118 0 -181 66q-28 29 -42 67.5t-14 81.5v361h293v-274q0 -42 21 -66q25 -28 74 -28q50 0 75 28t25 77v263h292v-560z" />
    <glyph glyph-name="uni043A.locl" horiz-adv-x="832" 
d="M360 0h-292v757h292v-397l143 200h314l-195 -250l220 -310h-324l-158 234v-234z" />
    <glyph glyph-name="uni043B.locl" horiz-adv-x="862" 
 />
    <glyph glyph-name="uni043D.locl" horiz-adv-x="932" 
d="M360 0h-292v560h292v-188h212v188h292v-560h-292v197h-212v-197z" />
    <glyph glyph-name="uni043F.locl" horiz-adv-x="919" 
d="M68 560h290v-87q34 40 84 66q69 37 161 37h10q120 0 184 -66q56 -57 56 -149v-361h-293v274q0 94 -99 94q-50 0 -75.5 -28t-25.5 -77v-263h-292v560z" />
    <glyph glyph-name="uni0442.locl" horiz-adv-x="1377" 
d="M68 0v560h290v-87q30 38 75 63q71 40 158 40h3q83 0 138 -31t81 -81q41 48 99 77q74 35 153 35h7q64 0 111 -17.5t76 -48.5q26 -28 38.5 -63t12.5 -72v-375h-291v286q0 35 -18 56q-24 26 -73 26q-47 0 -70 -26t-23 -72v-270h-292v286q0 35 -18 56q-24 26 -73 26
q-92 0 -92 -98v-270h-292z" />
    <glyph glyph-name="uni0446.locl" horiz-adv-x="971" 
d="M946 175v-293h-262v118h-128v87q-34 -40 -82 -65q-72 -38 -161 -38h-10q-118 0 -181 66q-28 29 -42 67.5t-14 81.5v361h293v-274q0 -42 21 -66q25 -28 74 -28q50 0 75 28t25 77v263h292v-385h100z" />
    <glyph glyph-name="uni0447.locl" horiz-adv-x="883" 
d="M815 560v-560h-292v183q-74 -12 -170 -12q-93 0 -153.5 15t-97.5 48q-36 32 -51.5 83t-15.5 126v117h292v-108q0 -58 27.5 -78.5t95.5 -20.5q35 0 73 8v199h292z" />
    <glyph glyph-name="uni0448.locl" horiz-adv-x="1376" 
 />
    <glyph glyph-name="uni0449.locl" horiz-adv-x="1433" 
d="M1308 560v-385h100v-293h-262v118h-128v87q-29 -36 -75 -62q-73 -41 -158 -41h-3q-83 0 -138 31t-81 81q-42 -50 -98 -76q-72 -36 -154 -36h-7q-64 0 -111 17.5t-75 48.5q-52 55 -52 135v375h291v-286q0 -35 19 -55q24 -27 72 -27q47 0 70 26t23 72v270h292v-286
q0 -35 19 -55q24 -27 72 -27q92 0 92 98v270h292z" />
    <glyph glyph-name="uni044A.locl" horiz-adv-x="1020" 
d="M20 560h444v-139h197q324 0 324 -200v-12q0 -55 -20.5 -95.5t-65.5 -68.5q-98 -60 -313 -60h-18q-206 0 -303 65q-93 62 -93 190v145h-152v175zM464 232q0 -47 30 -64q24 -15 78 -15h6q58 0 80 15q22 13 22 40v3q0 26 -18 37.5t-55 11.5h-143v-28z" />
    <glyph glyph-name="uni044C.locl" horiz-adv-x="916" 
d="M68 560h292v-139h197q324 0 324 -200v-12q0 -55 -20.5 -95.5t-65.5 -68.5q-98 -60 -313 -60h-18q-206 0 -303 65q-93 62 -93 190v320zM360 232q0 -47 30 -64q24 -15 78 -15h6q58 0 80 15q22 13 22 40v3q0 26 -18 37.5t-55 11.5h-143v-28z" />
    <glyph glyph-name="uni044E.locl" horiz-adv-x="1289" 
d="M1250 270q0 -66 -19 -116q-30 -75 -107 -116q-96 -53 -268 -53h-34q-188 0 -289 70q-75 51 -96 142h-77v-197h-292v757h292v-385h80q23 86 100 137q100 66 281 66h36q171 0 267 -53q78 -44 107 -118q19 -52 19 -118v-16zM842 165q53 0 81 42q21 30 21 75q0 47 -21 77
q-26 38 -81 38h-6q-56 0 -81 -38q-20 -31 -20 -77q0 -47 20 -76q26 -41 81 -41h6z" />
    <glyph glyph-name="uni0439.locl" horiz-adv-x="914" 
d="M846 0h-290v87q-34 -40 -82 -65q-72 -38 -161 -38h-10q-118 0 -181 66q-28 29 -42 67.5t-14 81.5v361h293v-274q0 -42 21 -66q25 -28 74 -28q50 0 75 28t25 77v263h292v-560zM254 678q-23 28 -33.5 60.5t-10.5 63.5h186q0 -22 10 -37q15 -24 49 -24h2q34 0 48 23
q11 17 11 38h186q0 -73 -43 -124q-60 -71 -196 -71h-14q-135 0 -195 71z" />
    </font>
</defs>
</svg>
